  0
SECTION
  2
HEADER
  9
$ACADVER
  1
AC1014
  9
$ACADMAINTVER
 70
     9
  9
$DWGCODEPAGE
  3
ANSI_1252
  9
$INSBASE
 10
0.0
 20
0.0
 30
0.0
  9
$EXTMIN
 10
0.019
 20
0.019
 30
0.0
  9
$EXTMAX
 10
10.981
 20
8.481
 30
0.0
  9
$LIMMIN
 10
0.0
 20
0.0
  9
$LIMMAX
 10
12.0
 20
9.0
  9
$ORTHOMODE
 70
     0
  9
$REGENMODE
 70
     1
  9
$FILLMODE
 70
     1
  9
$QTEXTMODE
 70
     0
  9
$MIRRTEXT
 70
     1
  9
$DRAGMODE
 70
     2
  9
$LTSCALE
 40
0.5
  9
$OSMODE
 70
    23
  9
$ATTMODE
 70
     1
  9
$TEXTSIZE
 40
0.12
  9
$TRACEWID
 40
0.05
  9
$TEXTSTYLE
  7
ONSHAPE-STANDARD
  9
$CLAYER
  8
0
  9
$CELTYPE
  6
BYLAYER
  9
$CECOLOR
 62
   256
  9
$CELTSCALE
 40
1.0
  9
$DELOBJ
 70
     1
  9
$DISPSILH
 70
     0
  9
$DIMSCALE
 40
1.0
  9
$DIMASZ
 40
0.18
  9
$DIMEXO
 40
0.0625
  9
$DIMDLI
 40
0.38
  9
$DIMRND
 40
0.0
  9
$DIMDLE
 40
0.0
  9
$DIMEXE
 40
0.08
  9
$DIMTP
 40
0.0
  9
$DIMTM
 40
0.0
  9
$DIMTXT
 40
0.12
  9
$DIMCEN
 40
0.09
  9
$DIMTSZ
 40
0.0
  9
$DIMTOL
 70
     0
  9
$DIMLIM
 70
     0
  9
$DIMTIH
 70
     1
  9
$DIMTOH
 70
     1
  9
$DIMSE1
 70
     0
  9
$DIMSE2
 70
     0
  9
$DIMTAD
 70
     0
  9
$DIMZIN
 70
     7
  9
$DIMBLK
  1

  9
$DIMASO
 70
     1
  9
$DIMSHO
 70
     1
  9
$DIMPOST
  1

  9
$DIMAPOST
  1

  9
$DIMALT
 70
     0
  9
$DIMALTD
 70
     2
  9
$DIMALTF
 40
25.4
  9
$DIMLFAC
 40
1.0
  9
$DIMTOFL
 70
     0
  9
$DIMTVP
 40
0.0
  9
$DIMTIX
 70
     0
  9
$DIMSOXD
 70
     0
  9
$DIMSAH
 70
     0
  9
$DIMBLK1
  1

  9
$DIMBLK2
  1

  9
$DIMSTYLE
  2
ONSHAPE-STANDARD
  9
$DIMCLRD
 70
     7
  9
$DIMCLRE
 70
     7
  9
$DIMCLRT
 70
     7
  9
$DIMTFAC
 40
1.0
  9
$DIMGAP
 40
0.09
  9
$DIMJUST
 70
     0
  9
$DIMSD1
 70
     0
  9
$DIMSD2
 70
     0
  9
$DIMTOLJ
 70
     1
  9
$DIMTZIN
 70
     7
  9
$DIMALTZ
 70
     7
  9
$DIMALTTZ
 70
     0
  9
$DIMFIT
 70
     3
  9
$DIMUPT
 70
     1
  9
$DIMUNIT
 70
     2
  9
$DIMDEC
 70
     3
  9
$DIMTDEC
 70
     3
  9
$DIMALTU
 70
     2
  9
$DIMALTTD
 70
     2
  9
$DIMTXSTY
  7
ONSHAPE-STANDARD-DIMENSION
  9
$DIMAUNIT
 70
     0
  9
$LUNITS
 70
     2
  9
$LUPREC
 70
     4
  9
$SKETCHINC
 40
0.1
  9
$FILLETRAD
 40
0.5
  9
$AUNITS
 70
     0
  9
$AUPREC
 70
     0
  9
$MENU
  1
.
  9
$ELEVATION
 40
0.0
  9
$PELEVATION
 40
0.0
  9
$THICKNESS
 40
0.0
  9
$LIMCHECK
 70
     0
  9
$CHAMFERA
 40
0.0
  9
$CHAMFERB
 40
0.0
  9
$CHAMFERC
 40
0.0
  9
$CHAMFERD
 40
0.0
  9
$SKPOLY
 70
     0
  9
$TDCREATE
 40
2459554.345228507
  9
$TDUPDATE
 40
2459554.345229375
  9
$TDINDWG
 40
0.0
  9
$TDUSRTIMER
 40
0.0
  9
$USRTIMER
 70
     1
  9
$ANGBASE
 50
0.0
  9
$ANGDIR
 70
     0
  9
$PDMODE
 70
    33
  9
$PDSIZE
 40
0.0393700787401575
  9
$PLINEWID
 40
0.0
  9
$COORDS
 70
     1
  9
$SPLFRAME
 70
     0
  9
$SPLINETYPE
 70
     6
  9
$SPLINESEGS
 70
     8
  9
$ATTDIA
 70
     0
  9
$ATTREQ
 70
     1
  9
$HANDLING
 70
     1
  9
$HANDSEED
  5
257
  9
$SURFTAB1
 70
     6
  9
$SURFTAB2
 70
     6
  9
$SURFTYPE
 70
     6
  9
$SURFU
 70
     6
  9
$SURFV
 70
     6
  9
$UCSNAME
  2

  9
$UCSORG
 10
0.0
 20
0.0
 30
0.0
  9
$UCSXDIR
 10
1.0
 20
0.0
 30
0.0
  9
$UCSYDIR
 10
0.0
 20
1.0
 30
0.0
  9
$PUCSNAME
  2

  9
$PUCSORG
 10
0.0
 20
0.0
 30
0.0
  9
$PUCSXDIR
 10
1.0
 20
0.0
 30
0.0
  9
$PUCSYDIR
 10
0.0
 20
1.0
 30
0.0
  9
$USERI1
 70
     0
  9
$USERI2
 70
     0
  9
$USERI3
 70
     0
  9
$USERI4
 70
     0
  9
$USERI5
 70
     0
  9
$USERR1
 40
0.0
  9
$USERR2
 40
0.0
  9
$USERR3
 40
0.0
  9
$USERR4
 40
0.0
  9
$USERR5
 40
0.0
  9
$WORLDVIEW
 70
     1
  9
$SHADEDGE
 70
     3
  9
$SHADEDIF
 70
    70
  9
$TILEMODE
 70
     1
  9
$MAXACTVP
 70
    64
  9
$PINSBASE
 10
0.0
 20
0.0
 30
0.0
  9
$PLIMCHECK
 70
     0
  9
$PEXTMIN
 10
1.000000000000000E+20
 20
1.000000000000000E+20
 30
1.000000000000000E+20
  9
$PEXTMAX
 10
-1.000000000000000E+20
 20
-1.000000000000000E+20
 30
-1.000000000000000E+20
  9
$PLIMMIN
 10
0.0
 20
0.0
  9
$PLIMMAX
 10
12.0
 20
9.0
  9
$UNITMODE
 70
     0
  9
$VISRETAIN
 70
     1
  9
$PLINEGEN
 70
     0
  9
$PSLTSCALE
 70
     1
  9
$TREEDEPTH
 70
  3020
  9
$PICKSTYLE
 70
     1
  9
$CMLSTYLE
  2
STANDARD
  9
$CMLJUST
 70
     0
  9
$CMLSCALE
 40
1.0
  9
$PROXYGRAPHICS
 70
     1
  9
$MEASUREMENT
 70
     0
  0
ENDSEC
  0
SECTION
  2
CLASSES
  0
CLASS
  1
ACDBDICTIONARYWDFLT
  2
AcDbDictionaryWithDefault
  3
ObjectDBX Classes
 90
        0
280
     0
281
     0
  0
CLASS
  1
VISUALSTYLE
  2
AcDbVisualStyle
  3
ObjectDBX Classes
 90
     4095
280
     0
281
     0
  0
CLASS
  1
MATERIAL
  2
AcDbMaterial
  3
ObjectDBX Classes
 90
     1153
280
     0
281
     0
  0
CLASS
  1
SCALE
  2
AcDbScale
  3
ObjectDBX Classes
 90
     1153
280
     0
281
     0
  0
CLASS
  1
TABLESTYLE
  2
AcDbTableStyle
  3
ObjectDBX Classes
 90
     4095
280
     0
281
     0
  0
CLASS
  1
MLEADERSTYLE
  2
AcDbMLeaderStyle
  3
ACDB_MLEADERSTYLE_CLASS
 90
     4095
280
     0
281
     0
  0
CLASS
  1
SUN
  2
AcDbSun
  3
SCENEOE
 90
     1153
280
     0
281
     0
  0
CLASS
  1
DICTIONARYVAR
  2
AcDbDictionaryVar
  3
ObjectDBX Classes
 90
        0
280
     0
281
     0
  0
CLASS
  1
FIELD
  2
AcDbField
  3
ObjectDBX Classes
 90
     1152
280
     0
281
     0
  0
CLASS
  1
DIMASSOC
  2
AcDbDimAssoc
  3
"AcDbDimAssoc|Product Desc:     AcDim ARX App For Dimension|Company:          Autodesk, Inc.|WEB Address:      www.autodesk.com"
 90
        0
280
     0
281
     0
  0
CLASS
  1
FIELDLIST
  2
AcDbFieldList
  3
ObjectDBX Classes
 90
     1152
280
     0
281
     0
  0
CLASS
  1
XRECORD
  2
AcDbXrecord
  3
ObjectDBX Classes
 90
        0
280
     0
281
     0
  0
CLASS
  1
LWPOLYLINE
  2
AcDbPolyline
  3
ObjectDBX Classes
 90
        0
280
     0
281
     1
  0
CLASS
  1
HATCH
  2
AcDbHatch
  3
ObjectDBX Classes
 90
        0
280
     0
281
     1
  0
CLASS
  1
ACDBPLACEHOLDER
  2
AcDbPlaceHolder
  3
ObjectDBX Classes
 90
        0
280
     0
281
     0
  0
CLASS
  1
LAYOUT
  2
AcDbLayout
  3
ObjectDBX Classes
 90
        0
280
     0
281
     0
  0
ENDSEC
  0
SECTION
  2
TABLES
  0
TABLE
  2
VPORT
  5
8
102
{ACAD_XDICTIONARY
360
24C
102
}
330
0
100
AcDbSymbolTable
 70
     1
  0
VPORT
  5
29
330
8
100
AcDbSymbolTableRecord
100
AcDbViewportTableRecord
  2
*ACTIVE
 70
     0
 10
0.0
 20
0.0
 11
1.0
 21
1.0
 12
5.5
 22
4.389959809264305
 13
0.0
 23
0.0
 14
0.5
 24
0.5
 15
0.5
 25
0.5
 16
0.0
 26
0.0
 36
1.0
 17
0.0
 27
0.0
 37
0.0
 40
8.916758010899182
 41
1.253957995308708
 42
50.0
 43
0.0
 44
0.0
 50
0.0
 51
0.0
 71
     0
 72
   100
 73
     1
 74
     3
 75
     0
 76
     0
 77
     0
 78
     0
  0
ENDTAB
  0
TABLE
  2
LTYPE
  5
5
330
0
100
AcDbSymbolTable
 70
     1
  0
LTYPE
  5
14
330
5
100
AcDbSymbolTableRecord
100
AcDbLinetypeTableRecord
  2
BYBLOCK
 70
     0
  3

 72
    65
 73
     0
 40
0.0
  0
LTYPE
  5
15
330
5
100
AcDbSymbolTableRecord
100
AcDbLinetypeTableRecord
  2
BYLAYER
 70
     0
  3

 72
    65
 73
     0
 40
0.0
  0
LTYPE
  5
16
330
5
100
AcDbSymbolTableRecord
100
AcDbLinetypeTableRecord
  2
CONTINUOUS
 70
     0
  3
Solid line
 72
    65
 73
     0
 40
0.0
  0
ENDTAB
  0
TABLE
  2
LAYER
  5
2
330
0
100
AcDbSymbolTable
 70
     8
  0
LAYER
  5
10
330
2
100
AcDbSymbolTableRecord
100
AcDbLayerTableRecord
  2
0
 70
     0
 62
     7
  6
CONTINUOUS
  0
LAYER
  5
70
330
2
100
AcDbSymbolTableRecord
100
AcDbLayerTableRecord
  2
DEFPOINTS
 70
     0
 62
     7
  6
CONTINUOUS
  0
LAYER
  5
74
330
2
100
AcDbSymbolTableRecord
100
AcDbLayerTableRecord
  2
VISIBLE
 70
     0
 62
     7
  6
CONTINUOUS
  0
LAYER
  5
76
330
2
100
AcDbSymbolTableRecord
100
AcDbLayerTableRecord
  2
TANGENT_LINES
 70
     0
 62
     7
  6
CONTINUOUS
  0
LAYER
  5
100
330
2
100
AcDbSymbolTableRecord
100
AcDbLayerTableRecord
  2
BORDER_FRAME
 70
     0
 62
     7
  6
CONTINUOUS
  0
LAYER
  5
106
330
2
100
AcDbSymbolTableRecord
100
AcDbLayerTableRecord
  2
BORDER_ZONES
 70
     0
 62
     7
  6
CONTINUOUS
  0
LAYER
  5
114
330
2
100
AcDbSymbolTableRecord
100
AcDbLayerTableRecord
  2
TITLE_BLOCK
 70
     0
 62
     7
  6
CONTINUOUS
  0
LAYER
  5
1AD
330
2
100
AcDbSymbolTableRecord
100
AcDbLayerTableRecord
  2
ANNOTATION_TEXT
 70
     0
 62
     7
  6
CONTINUOUS
  0
ENDTAB
  0
TABLE
  2
STYLE
  5
3
330
0
100
AcDbSymbolTable
 70
    28
  0
STYLE
  5
11
330
3
100
AcDbSymbolTableRecord
100
AcDbTextStyleTableRecord
  2
STANDARD
 70
     0
 40
0.0
 41
1.0
 50
0.0
 71
     0
 42
0.12
  3
txt
  4

  0
STYLE
  5
71
330
3
100
AcDbSymbolTableRecord
100
AcDbTextStyleTableRecord
  2
ONSHAPE-STANDARD
 70
     0
 40
0.0
 41
1.0
 50
0.0
 71
     0
 42
0.12
  3
NotoSans-Regular.ttf
  4

1001
ACAD
1000
Noto Sans
1071
        0
  0
STYLE
  5
73
330
3
100
AcDbSymbolTableRecord
100
AcDbTextStyleTableRecord
  2
ONSHAPE-STANDARD-DIMENSION
 70
     0
 40
0.0
 41
1.0
 50
0.0
 71
     0
 42
0.12
  3

  4

1001
ACAD
1000
Noto Sans
1071
        0
  0
STYLE
  5
148
330
3
100
AcDbSymbolTableRecord
100
AcDbTextStyleTableRecord
  2
ONSHAPE-STANDARD-FIELDS
 70
     0
 40
0.0
 41
1.0
 50
0.0
 71
     0
 42
0.12
  3

  4

1001
ACAD
1000
Noto Sans
1071
        0
  0
STYLE
  5
1AF
330
3
100
AcDbSymbolTableRecord
100
AcDbTextStyleTableRecord
  2
ONSHAPE-STANDARD-VIEW-LABE
 70
     0
 40
0.12
 41
1.0
 50
0.0
 71
     0
 42
0.12
  3
NotoSans-Regular.ttf
  4

1001
ACAD
1000
Noto Sans
1071
        0
  0
STYLE
  5
1EA
330
3
100
AcDbSymbolTableRecord
100
AcDbTextStyleTableRecord
  2
ONSHAPE-STANDARD-BOLD
 70
     0
 40
0.0
 41
1.0
 50
0.0
 71
     0
 42
0.12
  3
NotoSans-Bold.ttf
  4

1001
ACAD
1000
Noto Sans
1071
 33554432
  0
STYLE
  5
1EB
330
3
100
AcDbSymbolTableRecord
100
AcDbTextStyleTableRecord
  2
ONSHAPE-STANDARD-TCFIELDS
 70
     0
 40
0.0
 41
1.0
 50
0.0
 71
     0
 42
0.12
  3
NotoSansTC-Regular.otf
  4

1001
ACAD
1000
Noto Sans TC
1071
        0
  0
STYLE
  5
1EC
330
3
100
AcDbSymbolTableRecord
100
AcDbTextStyleTableRecord
  2
ONSHAPE-STANDARD-SCFIELDS
 70
     0
 40
0.0
 41
1.0
 50
0.0
 71
     0
 42
0.12
  3
NotoSansSC-Regular.otf
  4

1001
ACAD
1000
Noto Sans SC
1071
        0
  0
STYLE
  5
1ED
330
3
100
AcDbSymbolTableRecord
100
AcDbTextStyleTableRecord
  2
ONSHAPE-STANDARD-KOREANFIE
 70
     0
 40
0.0
 41
1.0
 50
0.0
 71
     0
 42
0.12
  3
NotoSansKR-Regular.otf
  4

1001
ACAD
1000
Noto Sans KR
1071
        0
  0
STYLE
  5
1EE
330
3
100
AcDbSymbolTableRecord
100
AcDbTextStyleTableRecord
  2
ONSHAPE-STANDARD-JAPANESEF
 70
     0
 40
0.0
 41
1.0
 50
0.0
 71
     0
 42
0.12
  3
NotoSansJP-Regular.otf
  4

1001
ACAD
1000
Noto Sans JP
1071
        0
  0
STYLE
  5
1EF
330
3
100
AcDbSymbolTableRecord
100
AcDbTextStyleTableRecord
  2
TTFSTYLE
 70
     0
 40
0.0
 41
1.0
 50
0.0
 71
     0
 42
0.12
  3
Verdana.ttf
  4

1001
ACAD
1000
Verdana
1071
       34
  0
STYLE
  5
1F0
330
3
100
AcDbSymbolTableRecord
100
AcDbTextStyleTableRecord
  2
ONSHAPE-STANDARD-GTOLERANC
 70
     0
 40
0.0
 41
1.0
 50
0.0
 71
     0
 42
0.12
  3

  4

1001
ACAD
1000
Noto Sans
1071
        0
  0
STYLE
  5
1F1
330
3
100
AcDbSymbolTableRecord
100
AcDbTextStyleTableRecord
  2
ONSHAPE-STANDARD-TABLE-DAT
 70
     0
 40
0.0
 41
1.0
 50
0.0
 71
     0
 42
0.12
  3
NotoSans-Regular.ttf
  4

1001
ACAD
1000
Noto Sans
1071
        0
  0
STYLE
  5
1F2
330
3
100
AcDbSymbolTableRecord
100
AcDbTextStyleTableRecord
  2
ONSHAPE-STANDARD-TABLE-TIT
 70
     0
 40
0.0
 41
1.0
 50
0.0
 71
     0
 42
0.12
  3
NotoSans-Bold.ttf
  4

1001
ACAD
1000
Noto Sans
1071
 33554432
  0
STYLE
  5
1F3
330
3
100
AcDbSymbolTableRecord
100
AcDbTextStyleTableRecord
  2
ONSHAPE-STANDARD-TABLE-HEA
 70
     0
 40
0.0
 41
1.0
 50
0.0
 71
     0
 42
0.12
  3
NotoSans-Bold.ttf
  4

1001
ACAD
1000
Noto Sans
1071
 33554432
  0
STYLE
  5
1F4
330
3
100
AcDbSymbolTableRecord
100
AcDbTextStyleTableRecord
  2
ONSHAPE-STANDARD-BOMTABLE-
 70
     0
 40
0.0
 41
1.0
 50
0.0
 71
     0
 42
0.12
  3
NotoSans-Regular.ttf
  4

1001
ACAD
1000
Noto Sans
1071
        0
  0
STYLE
  5
1F5
330
3
100
AcDbSymbolTableRecord
100
AcDbTextStyleTableRecord
  2
ONSHAPE-STANDARD-BOMTABLE0
 70
     0
 40
0.0
 41
1.0
 50
0.0
 71
     0
 42
0.12
  3
NotoSans-Bold.ttf
  4

1001
ACAD
1000
Noto Sans
1071
 33554432
  0
STYLE
  5
1F6
330
3
100
AcDbSymbolTableRecord
100
AcDbTextStyleTableRecord
  2
ONSHAPE-STANDARD-BOMTABLE1
 70
     0
 40
0.0
 41
1.0
 50
0.0
 71
     0
 42
0.12
  3
NotoSans-Bold.ttf
  4

1001
ACAD
1000
Noto Sans
1071
 33554432
  0
STYLE
  5
1F7
330
3
100
AcDbSymbolTableRecord
100
AcDbTextStyleTableRecord
  2
ONSHAPE-STANDARD-NOTESTYLE
 70
     0
 40
0.12
 41
1.0
 50
0.0
 71
     0
 42
0.12
  3
Noto Sans
  4

1001
ACAD
1000
Noto Sans
1071
        0
  0
STYLE
  5
1F8
330
3
100
AcDbSymbolTableRecord
100
AcDbTextStyleTableRecord
  2
ONSHAPE-STANDARD-HOLE-CALL
 70
     0
 40
0.12
 41
1.0
 50
0.0
 71
     0
 42
0.12
  3
Noto Sans
  4

1001
ACAD
1000
Noto Sans
1071
        0
  0
STYLE
  5
1F9
330
3
100
AcDbSymbolTableRecord
100
AcDbTextStyleTableRecord
  2
ONSHAPE-STANDARD-HOLETABLE
 70
     0
 40
0.0
 41
1.0
 50
0.0
 71
     0
 42
0.12
  3
NotoSans-Regular.ttf
  4

1001
ACAD
1000
Noto Sans
1071
        0
  0
STYLE
  5
1FA
330
3
100
AcDbSymbolTableRecord
100
AcDbTextStyleTableRecord
  2
ONSHAPE-STANDARD-HOLETABL0
 70
     0
 40
0.0
 41
1.0
 50
0.0
 71
     0
 42
0.12
  3
NotoSans-Bold.ttf
  4

1001
ACAD
1000
Noto Sans
1071
 33554432
  0
STYLE
  5
1FB
330
3
100
AcDbSymbolTableRecord
100
AcDbTextStyleTableRecord
  2
ONSHAPE-STANDARD-HOLETABL1
 70
     0
 40
0.0
 41
1.0
 50
0.0
 71
     0
 42
0.12
  3
NotoSans-Bold.ttf
  4

1001
ACAD
1000
Noto Sans
1071
 33554432
  0
STYLE
  5
1FC
330
3
100
AcDbSymbolTableRecord
100
AcDbTextStyleTableRecord
  2
ONSHAPE-STANDARD-HOLE-TAG
 70
     0
 40
0.12
 41
1.0
 50
0.0
 71
     0
 42
0.12
  3
Noto Sans
  4

1001
ACAD
1000
Noto Sans
1071
        0
  0
STYLE
  5
1FD
330
3
100
AcDbSymbolTableRecord
100
AcDbTextStyleTableRecord
  2
ONSHAPE-STANDARD-REVISIONT
 70
     0
 40
0.0
 41
1.0
 50
0.0
 71
     0
 42
0.12
  3
NotoSans-Regular.ttf
  4

1001
ACAD
1000
Noto Sans
1071
        0
  0
STYLE
  5
1FE
330
3
100
AcDbSymbolTableRecord
100
AcDbTextStyleTableRecord
  2
ONSHAPE-STANDARD-REVISION0
 70
     0
 40
0.0
 41
1.0
 50
0.0
 71
     0
 42
0.12
  3
NotoSans-Bold.ttf
  4

1001
ACAD
1000
Noto Sans
1071
 33554432
  0
STYLE
  5
1FF
330
3
100
AcDbSymbolTableRecord
100
AcDbTextStyleTableRecord
  2
ONSHAPE-STANDARD-REVISION1
 70
     0
 40
0.0
 41
1.0
 50
0.0
 71
     0
 42
0.12
  3
NotoSans-Bold.ttf
  4

1001
ACAD
1000
Noto Sans
1071
 33554432
  0
STYLE
  5
200
330
3
100
AcDbSymbolTableRecord
100
AcDbTextStyleTableRecord
  2
ONSHAPE-STANDARD-REVISION-
 70
     0
 40
0.12
 41
1.0
 50
0.0
 71
     0
 42
0.12
  3
Noto Sans
  4

1001
ACAD
1000
Noto Sans
1071
        0
  0
ENDTAB
  0
TABLE
  2
VIEW
  5
6
330
0
100
AcDbSymbolTable
 70
     0
  0
ENDTAB
  0
TABLE
  2
UCS
  5
7
330
0
100
AcDbSymbolTable
 70
     0
  0
ENDTAB
  0
TABLE
  2
APPID
  5
9
330
0
100
AcDbSymbolTable
 70
     6
  0
APPID
  5
12
330
9
100
AcDbSymbolTableRecord
100
AcDbRegAppTableRecord
  2
ACAD
 70
     0
  0
APPID
  5
1C1
330
9
100
AcDbSymbolTableRecord
100
AcDbRegAppTableRecord
  2
ACAD_DSTYLE_DIMRADIAL_EXTE
 70
     0
  0
APPID
  5
1C2
330
9
100
AcDbSymbolTableRecord
100
AcDbRegAppTableRecord
  2
ACAD_DIMASSOC_CALC_DIMLFAC
 70
     0
  0
APPID
  5
1C3
330
9
100
AcDbSymbolTableRecord
100
AcDbRegAppTableRecord
  2
ACAD_DIMASSOC_DIMLFAC
 70
     0
  0
APPID
  5
1C4
330
9
100
AcDbSymbolTableRecord
100
AcDbRegAppTableRecord
  2
ACAD_DIMASSOC_OVERRIDDEN_D
 70
     0
  0
APPID
  5
256
330
9
100
AcDbSymbolTableRecord
100
AcDbRegAppTableRecord
  2
ACAD_MLEADERVER
 70
     0
  0
ENDTAB
  0
TABLE
  2
DIMSTYLE
  5
A
330
0
100
AcDbSymbolTable
 70
    17
  0
DIMSTYLE
105
27
330
A
100
AcDbSymbolTableRecord
100
AcDbDimStyleTableRecord
  2
STANDARD
 70
     0
  3

  4

  5

  6

  7

 40
1.0
 41
0.18
 42
0.0625
 43
0.38
 44
0.18
 45
0.0
 46
0.0
 47
0.0
 48
0.0
140
0.18
141
0.09
142
0.0
143
25.4
144
1.0
145
0.0
146
1.0
147
0.09
 71
     0
 72
     0
 73
     1
 74
     1
 75
     0
 76
     0
 77
     0
 78
     0
170
     0
171
     2
172
     0
173
     0
174
     0
175
     0
176
     0
177
     0
178
     0
270
     2
271
     4
272
     4
273
     2
274
     2
340
11
275
     0
280
     0
281
     0
282
     0
283
     1
284
     0
285
     0
286
     0
287
     3
288
     0
  0
DIMSTYLE
105
72
330
A
100
AcDbSymbolTableRecord
100
AcDbDimStyleTableRecord
  2
ONSHAPE-STANDARD
 70
     0
  3

  4

  5

  6

  7

 40
1.0
 41
0.18
 42
0.0625
 43
0.38
 44
0.08
 45
0.0
 46
0.0
 47
0.0
 48
0.0
140
0.12
141
0.09
142
0.0
143
25.4
144
1.0
145
0.0
146
1.0
147
0.09
 71
     0
 72
     0
 73
     1
 74
     1
 75
     0
 76
     0
 77
     0
 78
     7
170
     0
171
     2
172
     0
173
     0
174
     0
175
     0
176
     7
177
     7
178
     7
179
     1
270
     2
271
     3
272
     3
273
     2
274
     2
340
73
275
     0
280
     0
281
     0
282
     0
283
     1
284
     7
285
     7
286
     0
287
     3
288
     1
  0
DIMSTYLE
105
1B6
102
{ACAD_REACTORS
330
1B0
330
1C5
330
1D4
102
}
330
A
100
AcDbSymbolTableRecord
100
AcDbDimStyleTableRecord
  2
ONSHAPE-STANDARD$3
 70
     0
  3

  4

  5

  6

  7

 40
1.0
 41
0.18
 42
0.0625
 43
0.38
 44
0.08
 45
0.0
 46
0.0
 47
0.0
 48
0.0
140
0.12
141
0.0
142
0.0
143
25.4
144
1.0
145
0.0
146
1.0
147
0.09
 71
     0
 72
     0
 73
     1
 74
     1
 75
     0
 76
     0
 77
     0
 78
     7
170
     0
171
     2
172
     0
173
     0
174
     0
175
     0
176
     7
177
     7
178
     7
179
     1
270
     2
271
     3
272
     3
273
     2
274
     2
340
73
275
     0
280
     0
281
     0
282
     0
283
     1
284
     7
285
     7
286
     0
287
     3
288
     1
  0
DIMSTYLE
105
203
330
A
100
AcDbSymbolTableRecord
100
AcDbDimStyleTableRecord
  2
ANSI
 70
     0
  3

  4
mm
  5

  6

  7

 40
1.0
 41
0.12
 42
0.05
 43
0.5
 44
0.1
 45
0.0
 46
0.0
 47
0.1
 48
0.1
140
0.12
141
0.0
142
0.0
143
25.4
144
1.0
145
0.0
146
0.71
147
0.06
 71
     0
 72
     0
 73
     1
 74
     1
 75
     0
 76
     0
 77
     0
 78
     7
170
     0
171
     2
172
     0
173
     0
174
     0
175
     0
176
     7
177
     7
178
     7
270
     2
271
     3
272
     4
273
     2
274
     2
340
11
275
     0
280
     0
281
     0
282
     0
283
     1
284
     7
285
     7
286
     0
287
     3
288
     1
  0
DIMSTYLE
105
204
330
A
100
AcDbSymbolTableRecord
100
AcDbDimStyleTableRecord
  2
ANSI$3
 70
     0
  3

  4
mm
  5

  6

  7

 40
1.0
 41
0.12
 42
0.05
 43
0.5
 44
0.1
 45
0.0
 46
0.0
 47
0.1
 48
0.1
140
0.12
141
0.0
142
0.0
143
25.4
144
1.0
145
0.0
146
0.71
147
0.06
 71
     0
 72
     0
 73
     1
 74
     1
 75
     0
 76
     0
 77
     0
 78
     7
170
     0
171
     2
172
     0
173
     0
174
     0
175
     0
176
     7
177
     7
178
     7
270
     2
271
     3
272
     4
273
     2
274
     2
340
11
275
     0
280
     0
281
     0
282
     0
283
     1
284
     7
285
     7
286
     0
288
     1
  0
DIMSTYLE
105
205
330
A
100
AcDbSymbolTableRecord
100
AcDbDimStyleTableRecord
  2
ANSI$4
 70
     0
  3

  4
mm
  5

  6

  7

 40
1.0
 41
0.12
 42
0.05
 43
0.5
 44
0.1
 45
0.0
 46
0.0
 47
0.1
 48
0.1
140
0.12
141
0.0
142
0.0
143
25.4
144
1.0
145
0.0
146
0.71
147
0.06
 71
     0
 72
     0
 73
     1
 74
     1
 75
     0
 76
     0
 77
     0
 78
     7
170
     0
171
     2
172
     0
173
     0
174
     0
175
     0
176
     7
177
     7
178
     7
270
     2
271
     3
272
     4
273
     2
274
     2
340
11
275
     0
280
     0
281
     0
282
     0
283
     1
284
     7
285
     7
286
     0
287
     3
288
     1
  0
DIMSTYLE
105
206
330
A
100
AcDbSymbolTableRecord
100
AcDbDimStyleTableRecord
  2
ANSI$7
 70
     0
  3

  4
mm
  5

  6

  7

 40
1.0
 41
0.12
 42
0.05
 43
0.5
 44
0.1
 45
0.0
 46
0.0
 47
0.1
 48
0.1
140
0.12
141
0.0
142
0.0
143
25.4
144
1.0
145
0.0
146
0.71
147
0.06
 71
     0
 72
     0
 73
     1
 74
     1
 75
     0
 76
     0
 77
     0
 78
     7
170
     0
171
     2
172
     0
173
     0
174
     0
175
     0
176
     7
177
     7
178
     7
270
     2
271
     3
272
     4
273
     2
274
     2
340
11
275
     0
280
     0
281
     0
282
     0
283
     1
284
     7
285
     7
286
     0
287
     3
288
     1
  0
DIMSTYLE
105
207
330
A
100
AcDbSymbolTableRecord
100
AcDbDimStyleTableRecord
  2
ANSI$SF
 70
     0
  3

  4
mm
  5

  6

  7

 40
1.0
 41
0.12
 42
0.05
 43
0.5
 44
0.1
 45
0.0
 46
0.0
 47
0.1
 48
0.1
140
0.12
141
0.0
142
0.0
143
25.4
144
1.0
145
0.0
146
0.71
147
0.06
 71
     0
 72
     0
 73
     1
 74
     1
 75
     1
 76
     1
 77
     0
 78
     7
170
     0
171
     2
172
     0
173
     0
174
     0
175
     0
176
     7
177
     7
178
     7
270
     2
271
     3
272
     4
273
     2
274
     2
340
11
275
     0
280
     0
281
     0
282
     0
283
     1
284
     7
285
     7
286
     0
287
     3
288
     1
  0
DIMSTYLE
105
208
330
A
100
AcDbSymbolTableRecord
100
AcDbDimStyleTableRecord
  2
ANSI$SH
 70
     0
  3

  4
mm
  5

  6

  7

 40
1.0
 41
0.12
 42
0.05
 43
0.5
 44
0.1
 45
0.0
 46
0.0
 47
0.1
 48
0.1
140
0.12
141
0.0
142
0.0
143
25.4
144
1.0
145
0.0
146
0.71
147
0.06
 71
     0
 72
     0
 73
     1
 74
     1
 75
     1
 76
     1
 77
     0
 78
     7
170
     0
171
     2
172
     0
173
     1
174
     0
175
     0
176
     7
177
     7
178
     7
270
     2
271
     3
272
     4
273
     2
274
     2
340
11
275
     0
280
     0
281
     0
282
     0
283
     1
284
     7
285
     7
286
     0
287
     3
288
     1
  0
DIMSTYLE
105
20A
330
A
100
AcDbSymbolTableRecord
100
AcDbDimStyleTableRecord
  2
ONSHAPE-STANDARD$0
 70
     0
  3

  4

  5

  6

  7

 40
1.0
 41
0.18
 42
0.0625
 43
0.38
 44
0.08
 45
0.0
 46
0.0
 47
0.0
 48
0.0
140
0.12
141
0.09
142
0.0
143
25.4
144
1.0
145
0.0
146
1.0
147
0.09
 71
     0
 72
     0
 73
     1
 74
     1
 75
     0
 76
     0
 77
     0
 78
     7
170
     0
171
     2
172
     0
173
     0
174
     0
175
     0
176
     7
177
     7
178
     7
179
     1
270
     2
271
     3
272
     3
273
     2
274
     2
340
73
275
     0
280
     0
281
     0
282
     0
283
     1
284
     7
285
     7
286
     0
287
     3
288
     1
  0
DIMSTYLE
105
20B
330
A
100
AcDbSymbolTableRecord
100
AcDbDimStyleTableRecord
  2
ONSHAPE-STANDARD$2
 70
     0
  3

  4

  5

  6

  7

 40
1.0
 41
0.18
 42
0.0625
 43
0.38
 44
0.08
 45
0.0
 46
0.0
 47
0.0
 48
0.0
140
0.12
141
0.09
142
0.0
143
25.4
144
1.0
145
0.0
146
1.0
147
0.09
 71
     0
 72
     0
 73
     1
 74
     1
 75
     0
 76
     0
 77
     0
 78
     7
170
     0
171
     2
172
     0
173
     0
174
     0
175
     0
176
     7
177
     7
178
     7
179
     1
270
     2
271
     3
272
     3
273
     2
274
     2
340
73
275
     0
280
     0
281
     0
282
     0
283
     1
284
     7
285
     7
286
     0
287
     3
288
     1
  0
DIMSTYLE
105
20C
330
A
100
AcDbSymbolTableRecord
100
AcDbDimStyleTableRecord
  2
ONSHAPE-STANDARD$4
 70
     0
  3

  4

  5

  6

  7

 40
1.0
 41
0.18
 42
0.0625
 43
0.38
 44
0.08
 45
0.0
 46
0.0
 47
0.0
 48
0.0
140
0.12
141
0.0
142
0.0
143
25.4
144
1.0
145
0.0
146
1.0
147
0.09
 71
     0
 72
     0
 73
     1
 74
     1
 75
     0
 76
     0
 77
     0
 78
     7
170
     0
171
     2
172
     0
173
     0
174
     0
175
     0
176
     7
177
     7
178
     7
179
     1
270
     2
271
     3
272
     3
273
     2
274
     2
340
73
275
     0
280
     0
281
     0
282
     0
283
     1
284
     7
285
     7
286
     0
287
     3
288
     1
  0
DIMSTYLE
105
20D
330
A
100
AcDbSymbolTableRecord
100
AcDbDimStyleTableRecord
  2
ONSHAPE-STANDARD$6
 70
     0
  3

  4

  5

  6

  7

 40
1.0
 41
0.02
 42
0.0625
 43
0.38
 44
0.08
 45
0.0
 46
0.0
 47
0.0
 48
0.0
140
0.12
141
0.09
142
0.0
143
25.4
144
1.0
145
0.0
146
1.0
147
0.09
 71
     0
 72
     0
 73
     1
 74
     1
 75
     0
 76
     0
 77
     0
 78
     7
170
     0
171
     2
172
     0
173
     0
174
     0
175
     0
176
     7
177
     7
178
     7
179
     1
270
     2
271
     3
272
     3
273
     2
274
     2
340
73
275
     0
280
     0
281
     0
282
     0
283
     1
284
     7
285
     7
286
     0
287
     3
288
     1
  0
DIMSTYLE
105
20E
330
A
100
AcDbSymbolTableRecord
100
AcDbDimStyleTableRecord
  2
ONSHAPE-STANDARD$7
 70
     0
  3

  4

  5

  6

  7

 40
1.0
 41
0.18
 42
0.0625
 43
0.38
 44
0.08
 45
0.0
 46
0.0
 47
0.0
 48
0.0
140
0.12
141
0.09
142
0.0
143
25.4
144
1.0
145
0.0
146
1.0
147
0.09
 71
     0
 72
     0
 73
     1
 74
     1
 75
     0
 76
     0
 77
     0
 78
     7
170
     0
171
     2
172
     0
173
     0
174
     0
175
     0
176
     7
177
     7
178
     7
179
     1
270
     2
271
     3
272
     3
273
     2
274
     2
340
73
275
     0
280
     0
281
     0
282
     0
283
     1
284
     7
285
     7
286
     0
287
     3
288
     1
  0
DIMSTYLE
105
20F
330
A
100
AcDbSymbolTableRecord
100
AcDbDimStyleTableRecord
  2
ONSHAPE-STANDARD-GTOLERANC
 70
     0
  3

  4

  5

  6

  7

 40
1.0
 41
0.18
 42
0.0625
 43
0.38
 44
0.08
 45
0.0
 46
0.0
 47
0.0
 48
0.0
140
0.12
141
0.09
142
0.0
143
25.4
144
1.0
145
0.0
146
1.0
147
0.09
 71
     0
 72
     0
 73
     1
 74
     1
 75
     0
 76
     0
 77
     0
 78
     7
170
     0
171
     2
172
     0
173
     0
174
     0
175
     0
176
     7
177
     7
178
     7
179
     1
270
     2
271
     3
272
     3
273
     2
274
     2
340
1F0
275
     0
280
     0
281
     0
282
     0
283
     1
284
     7
285
     7
286
     0
287
     3
288
     1
  0
DIMSTYLE
105
211
330
A
100
AcDbSymbolTableRecord
100
AcDbDimStyleTableRecord
  2
ONSHAPE-ORDINATESTYLE
 70
     0
  3

  4

  5

  6

  7

 40
1.0
 41
0.02
 42
0.0625
 43
0.38
 44
0.08
 45
0.0
 46
0.0
 47
0.0
 48
0.0
140
0.12
141
0.09
142
0.0
143
25.4
144
1.0
145
0.0
146
1.0
147
0.09
 71
     0
 72
     0
 73
     1
 74
     1
 75
     0
 76
     0
 77
     0
 78
     7
170
     0
171
     2
172
     0
173
     0
174
     0
175
     0
176
     7
177
     7
178
     7
179
     1
270
     2
271
     3
272
     3
273
     2
274
     2
340
73
275
     0
280
     0
281
     0
282
     0
283
     1
284
     7
285
     7
286
     0
287
     3
288
     1
  0
DIMSTYLE
105
212
330
A
100
AcDbSymbolTableRecord
100
AcDbDimStyleTableRecord
  2
ONSHAPE-CHAMFERDIMSTYLE
 70
     0
  3

  4

  5

  6

  7

 40
1.0
 41
0.18
 42
0.0625
 43
0.38
 44
0.08
 45
0.0
 46
0.0
 47
0.0
 48
0.0
140
0.12
141
0.09
142
0.0
143
25.4
144
1.0
145
0.0
146
1.0
147
0.09
 71
     0
 72
     0
 73
     1
 74
     1
 75
     0
 76
     0
 77
     0
 78
     7
170
     0
171
     2
172
     0
173
     0
174
     0
175
     0
176
     7
177
     7
178
     7
179
     1
270
     2
271
     3
272
     3
273
     2
274
     2
340
73
275
     0
280
     0
281
     0
282
     0
283
     1
284
     7
285
     7
286
     0
287
     3
288
     1
  0
ENDTAB
  0
TABLE
  2
BLOCK_RECORD
  5
1
330
0
100
AcDbSymbolTable
 70
     3
  0
BLOCK_RECORD
  5
1F
330
1
100
AcDbSymbolTableRecord
100
AcDbBlockTableRecord
  2
*MODEL_SPACE
  0
BLOCK_RECORD
  5
1B
330
1
100
AcDbSymbolTableRecord
100
AcDbBlockTableRecord
  2
*PAPER_SPACE
  0
BLOCK_RECORD
  5
1B8
330
1
100
AcDbSymbolTableRecord
100
AcDbBlockTableRecord
  2
*D1
  0
BLOCK_RECORD
  5
1CB
330
1
100
AcDbSymbolTableRecord
100
AcDbBlockTableRecord
  2
*D2
  0
BLOCK_RECORD
  5
1DA
330
1
100
AcDbSymbolTableRecord
100
AcDbBlockTableRecord
  2
*D3
  0
ENDTAB
  0
ENDSEC
  0
SECTION
  2
BLOCKS
  0
BLOCK
  5
20
330
1F
100
AcDbEntity
  8
0
100
AcDbBlockBegin
  2
*MODEL_SPACE
 70
     0
 10
0.0
 20
0.0
 30
0.0
  3
*MODEL_SPACE
  1

  0
ENDBLK
  5
21
330
1F
100
AcDbEntity
  8
0
100
AcDbBlockEnd
  0
BLOCK
  5
1C
330
1B
100
AcDbEntity
 67
     1
  8
0
100
AcDbBlockBegin
  2
*PAPER_SPACE
 70
     0
 10
0.0
 20
0.0
 30
0.0
  3
*PAPER_SPACE
  1

  0
ENDBLK
  5
1D
330
1B
100
AcDbEntity
 67
     1
  8
0
100
AcDbBlockEnd
  0
BLOCK
  5
1B9
330
1B8
100
AcDbEntity
  8
0
100
AcDbBlockBegin
  2
*D1
 70
     1
 10
0.0
 20
0.0
 30
0.0
  3
*D1
  1

  0
LINE
  5
1BA
330
1B8
100
AcDbEntity
  8
ANNOTATION_TEXT
 62
     7
100
AcDbLine
 10
2.618452669964605
 20
7.210473666633204
 30
0.0
 11
2.438452669964603
 21
7.210473666633204
 31
0.0
  0
LINE
  5
1BB
330
1B8
100
AcDbEntity
  8
ANNOTATION_TEXT
 62
     7
100
AcDbLine
 10
2.438452669964603
 20
7.210473666633204
 30
0.0
 11
2.444283714676521
 21
5.603214254650639
 31
0.0
  0
MTEXT
  5
1BC
330
1B8
100
AcDbEntity
  8
ANNOTATION_TEXT
 62
     7
100
AcDbMText
 10
3.383003078683951
 20
7.210473666633204
 30
0.0
 40
0.12
 41
0.0
 71
     5
 72
     1
  1
\A1;M2x6mm Tapped\P%%c2.200 mm 
  7
ONSHAPE-STANDARD-DIMENSION
  0
SOLID
  5
1BD
330
1B8
100
AcDbEntity
  8
ANNOTATION_TEXT
 62
     7
100
AcDbTrace
 10
2.414283912104073
 20
5.603105417092218
 30
0.0
 11
2.474283517248969
 21
5.60332309220906
 31
0.0
 12
2.444936740027044
 22
5.423215439215949
 32
0.0
 13
2.444936740027044
 23
5.423215439215949
 33
0.0
  0
POINT
  5
1BE
330
1B8
100
AcDbEntity
  8
DEFPOINTS
 62
     0
100
AcDbPoint
 10
2.444936740027044
 20
5.423215439215949
 30
0.0
  0
POINT
  5
1BF
330
1B8
100
AcDbEntity
  8
DEFPOINTS
 62
     0
100
AcDbPoint
 10
2.445250969198337
 20
5.336601835988407
 30
0.0
  0
ENDBLK
  5
1C0
330
1B8
100
AcDbEntity
  8
0
100
AcDbBlockEnd
  0
BLOCK
  5
1CC
330
1CB
100
AcDbEntity
  8
0
100
AcDbBlockBegin
  2
*D2
 70
     1
 10
0.0
 20
0.0
 30
0.0
  3
*D2
  1

  0
LINE
  5
1CD
330
1CB
100
AcDbEntity
  8
ANNOTATION_TEXT
 62
     7
100
AcDbLine
 10
8.599454403644419
 20
7.210473666633202
 30
0.0
 11
8.41945440364441
 21
7.210473666633202
 31
0.0
  0
LINE
  5
1CE
330
1CB
100
AcDbEntity
  8
ANNOTATION_TEXT
 62
     7
100
AcDbLine
 10
8.41945440364441
 20
7.210473666633202
 30
0.0
 11
8.441966454335551
 21
5.603193823630308
 31
0.0
  0
MTEXT
  5
1CF
330
1CB
100
AcDbEntity
  8
ANNOTATION_TEXT
 62
     7
100
AcDbMText
 10
9.364004812363765
 20
7.210473666633202
 30
0.0
 40
0.12
 41
0.0
 71
     5
 72
     1
  1
\A1;M2x6mm Tapped\P%%c2.200 mm 
  7
ONSHAPE-STANDARD-DIMENSION
  0
SOLID
  5
1D0
330
1CB
100
AcDbEntity
  8
ANNOTATION_TEXT
 62
     7
100
AcDbTrace
 10
8.411969396551095
 20
5.602773675708732
 30
0.0
 11
8.471963512120007
 21
5.603613971551884
 31
0.0
 12
8.444487341865008
 22
5.423211476923572
 32
0.0
 13
8.444487341865008
 23
5.423211476923572
 33
0.0
  0
POINT
  5
1D1
330
1CB
100
AcDbEntity
  8
DEFPOINTS
 62
     0
100
AcDbPoint
 10
8.444487341865008
 20
5.423211476923572
 30
0.0
  0
POINT
  5
1D2
330
1CB
100
AcDbEntity
  8
DEFPOINTS
 62
     0
100
AcDbPoint
 10
8.445700367360372
 20
5.336605798280785
 30
0.0
  0
ENDBLK
  5
1D3
330
1CB
100
AcDbEntity
  8
0
100
AcDbBlockEnd
  0
BLOCK
  5
1DB
330
1DA
100
AcDbEntity
  8
0
100
AcDbBlockBegin
  2
*D3
 70
     1
 10
0.0
 20
0.0
 30
0.0
  3
*D3
  1

  0
LINE
  5
1DC
330
1DA
100
AcDbEntity
  8
ANNOTATION_TEXT
 62
     7
100
AcDbLine
 10
5.628541970430101
 20
7.210473666633205
 30
0.0
 11
5.448541970430101
 21
7.210473666633205
 31
0.0
  0
LINE
  5
1DD
330
1DA
100
AcDbEntity
  8
ANNOTATION_TEXT
 62
     7
100
AcDbLine
 10
5.448541970430101
 20
7.210473666633205
 30
0.0
 11
5.445514482844572
 21
5.603215328061736
 31
0.0
  0
MTEXT
  5
1DE
330
1DA
100
AcDbEntity
  8
ANNOTATION_TEXT
 62
     7
100
AcDbMText
 10
6.393092379149447
 20
7.210473666633205
 30
0.0
 40
0.12
 41
0.0
 71
     5
 72
     1
  1
\A1;M2x6mm Tapped\P%%c2.200 mm 
  7
ONSHAPE-STANDARD-DIMENSION
  0
SOLID
  5
1DF
330
1DA
100
AcDbEntity
  8
ANNOTATION_TEXT
 62
     7
100
AcDbTrace
 10
5.415514536065626
 20
5.60327183700262
 30
0.0
 11
5.475514429623518
 21
5.603158819120852
 31
0.0
 12
5.445175429199267
 22
5.423215647388059
 32
0.0
 13
5.445175429199267
 23
5.423215647388059
 33
0.0
  0
POINT
  5
1E0
330
1DA
100
AcDbEntity
  8
DEFPOINTS
 62
     0
100
AcDbPoint
 10
5.445175429199267
 20
5.423215647388059
 30
0.0
  0
POINT
  5
1E1
330
1DA
100
AcDbEntity
  8
DEFPOINTS
 62
     0
100
AcDbPoint
 10
5.445012280026111
 20
5.336601627816298
 30
0.0
  0
ENDBLK
  5
1E2
330
1DA
100
AcDbEntity
  8
0
100
AcDbBlockEnd
  0
ENDSEC
  0
SECTION
  2
ENTITIES
  0
CIRCLE
  5
77
330
1F
100
AcDbEntity
  8
VISIBLE
100
AcDbCircle
 10
2.445093854612689
 20
5.379908637602179
 30
0.0
 40
0.0984251968503938
  0
CIRCLE
  5
78
330
1F
100
AcDbEntity
  8
TANGENT_LINES
100
AcDbCircle
 10
2.445093854612689
 20
5.379908637602179
 30
0.0
 40
0.0787401574803151
  0
CIRCLE
  5
79
330
1F
100
AcDbEntity
  8
TANGENT_LINES
100
AcDbCircle
 10
8.44509385461269
 20
5.379908637602179
 30
0.0
 40
0.0787401574803151
  0
CIRCLE
  5
7A
330
1F
100
AcDbEntity
  8
VISIBLE
100
AcDbCircle
 10
8.44509385461269
 20
5.379908637602179
 30
0.0
 40
0.0984251968503938
  0
CIRCLE
  5
7B
330
1F
100
AcDbEntity
  8
VISIBLE
100
AcDbCircle
 10
2.44509385461269
 20
5.379908637602179
 30
0.0
 40
0.0433070866141734
  0
CIRCLE
  5
7C
330
1F
100
AcDbEntity
  8
TANGENT_LINES
100
AcDbCircle
 10
5.44509385461269
 20
5.379908637602179
 30
0.0
 40
0.078740157480315
  0
CIRCLE
  5
7D
330
1F
100
AcDbEntity
  8
VISIBLE
100
AcDbCircle
 10
5.44509385461269
 20
5.379908637602179
 30
0.0
 40
0.0984251968503937
  0
CIRCLE
  5
7E
330
1F
100
AcDbEntity
  8
VISIBLE
100
AcDbCircle
 10
8.44509385461269
 20
5.379908637602179
 30
0.0
 40
0.0433070866141734
  0
CIRCLE
  5
7F
330
1F
100
AcDbEntity
  8
VISIBLE
100
AcDbCircle
 10
5.44509385461269
 20
5.379908637602179
 30
0.0
 40
0.0433070866141732
  0
CIRCLE
  5
80
330
1F
100
AcDbEntity
  8
TANGENT_LINES
100
AcDbCircle
 10
2.445093854612689
 20
5.379908637602179
 30
0.0
 40
0.1181102362204725
  0
CIRCLE
  5
81
330
1F
100
AcDbEntity
  8
TANGENT_LINES
100
AcDbCircle
 10
5.44509385461269
 20
5.379908637602179
 30
0.0
 40
0.1181102362204725
  0
CIRCLE
  5
82
330
1F
100
AcDbEntity
  8
TANGENT_LINES
100
AcDbCircle
 10
8.44509385461269
 20
5.379908637602179
 30
0.0
 40
0.1181102362204725
  0
LINE
  5
83
330
1F
100
AcDbEntity
  8
TANGENT_LINES
100
AcDbLine
 10
3.886038736502454
 20
4.649593676972257
 30
0.0
 11
3.886038736502454
 21
6.169278716342336
 31
0.0
  0
LINE
  5
84
330
1F
100
AcDbEntity
  8
TANGENT_LINES
100
AcDbLine
 10
3.964778893982769
 20
4.649593676972257
 30
0.0
 11
3.964778893982769
 21
6.149593676972257
 31
0.0
  0
LINE
  5
85
330
1F
100
AcDbEntity
  8
VISIBLE
100
AcDbLine
 10
3.214778893982769
 20
4.629908637602179
 30
0.0
 11
3.925408815242611
 21
4.629908637602179
 31
0.0
  0
LINE
  5
86
330
1F
100
AcDbEntity
  8
TANGENT_LINES
100
AcDbLine
 10
3.175408815242611
 20
4.649593676972257
 30
0.0
 11
3.175408815242611
 21
6.149593676972257
 31
0.0
  0
LINE
  5
87
330
1F
100
AcDbEntity
  8
VISIBLE
100
AcDbLine
 10
3.19509385461269
 20
4.649593676972257
 30
0.0
 11
3.19509385461269
 21
6.149593676972257
 31
0.0
  0
LINE
  5
88
330
1F
100
AcDbEntity
  8
TANGENT_LINES
100
AcDbLine
 10
2.050408815242611
 20
4.570853519491942
 30
0.0
 11
2.050408815242611
 21
3.8602235982321
 31
0.0
  0
LINE
  5
89
330
1F
100
AcDbEntity
  8
TANGENT_LINES
100
AcDbLine
 10
3.175408815242611
 20
6.149593676972257
 30
0.0
 11
1.675408815242611
 21
6.149593676972257
 31
0.0
  0
LINE
  5
8A
330
1F
100
AcDbEntity
  8
TANGENT_LINES
100
AcDbLine
 10
9.214778893982768
 20
6.149593676972257
 30
0.0
 11
3.964778893982769
 21
6.149593676972257
 31
0.0
  0
LINE
  5
8B
330
1F
100
AcDbEntity
  8
TANGENT_LINES
100
AcDbLine
 10
3.254148972722926
 20
4.649593676972257
 30
0.0
 11
3.254148972722926
 21
6.169278716342336
 31
0.0
  0
LINE
  5
8C
330
1F
100
AcDbEntity
  8
VISIBLE
100
AcDbLine
 10
3.94509385461269
 20
4.649593676972257
 30
0.0
 11
3.94509385461269
 21
6.149593676972257
 31
0.0
  0
LINE
  5
8D
330
1F
100
AcDbEntity
  8
VISIBLE
100
AcDbLine
 10
9.214778893982768
 20
6.169278716342336
 30
0.0
 11
1.675408815242611
 21
6.169278716342336
 31
0.0
  0
LINE
  5
8E
330
1F
100
AcDbEntity
  8
VISIBLE
100
AcDbLine
 10
9.234463933352847
 20
3.643688165161234
 30
0.0
 11
1.655723775872532
 21
3.643688165161234
 31
0.0
  0
LINE
  5
8F
330
1F
100
AcDbEntity
  8
TANGENT_LINES
100
AcDbLine
 10
9.234463933352847
 20
3.643688165161234
 30
0.0
 11
9.234463933352847
 21
3.70274328327147
 31
0.0
  0
LINE
  5
90
330
1F
100
AcDbEntity
  8
TANGENT_LINES
100
AcDbLine
 10
1.655723775872532
 20
3.70274328327147
 30
0.0
 11
1.655723775872532
 21
3.643688165161234
 31
0.0
  0
LINE
  5
91
330
1F
100
AcDbEntity
  8
VISIBLE
100
AcDbLine
 10
9.431314327053634
 20
6.169278716342336
 30
0.0
 11
9.431314327053634
 21
3.840538558862021
 31
0.0
  0
LINE
  5
92
330
1F
100
AcDbEntity
  8
VISIBLE
100
AcDbLine
 10
1.458873382171745
 20
3.840538558862021
 30
0.0
 11
1.458873382171745
 21
6.169278716342336
 31
0.0
  0
LINE
  5
93
330
1F
100
AcDbEntity
  8
TANGENT_LINES
100
AcDbLine
 10
1.517928500281981
 20
3.840538558862021
 30
0.0
 11
1.458873382171745
 21
3.840538558862021
 31
0.0
  0
LINE
  5
94
330
1F
100
AcDbEntity
  8
TANGENT_LINES
100
AcDbLine
 10
1.517928500281981
 20
6.169278716342336
 30
0.0
 11
1.458873382171745
 21
6.169278716342336
 31
0.0
  0
LINE
  5
95
330
1F
100
AcDbEntity
  8
TANGENT_LINES
100
AcDbLine
 10
1.675408815242611
 20
4.6102235982321
 30
0.0
 11
2.011038736502454
 21
4.6102235982321
 31
0.0
  0
LINE
  5
96
330
1F
100
AcDbEntity
  8
TANGENT_LINES
100
AcDbLine
 10
9.234463933352847
 20
6.366129110043124
 30
0.0
 11
9.234463933352847
 21
6.307073991932887
 31
0.0
  0
LINE
  5
97
330
1F
100
AcDbEntity
  8
VISIBLE
100
AcDbLine
 10
2.011038736502454
 20
3.8602235982321
 30
0.0
 11
2.011038736502454
 21
4.570853519491942
 31
0.0
  0
LINE
  5
98
330
1F
100
AcDbEntity
  8
TANGENT_LINES
100
AcDbLine
 10
3.214778893982769
 20
4.6102235982321
 30
0.0
 11
3.925408815242611
 21
4.6102235982321
 31
0.0
  0
LINE
  5
99
330
1F
100
AcDbEntity
  8
TANGENT_LINES
100
AcDbLine
 10
9.254148972722927
 20
4.6102235982321
 30
0.0
 11
9.234463933352847
 21
4.6102235982321
 31
0.0
  0
LINE
  5
9A
330
1F
100
AcDbEntity
  8
TANGENT_LINES
100
AcDbLine
 10
8.839778893982768
 20
3.820853519491942
 30
0.0
 11
8.839778893982768
 21
3.840538558862021
 31
0.0
  0
LINE
  5
9B
330
1F
100
AcDbEntity
  8
VISIBLE
100
AcDbLine
 10
8.839778893982768
 20
3.820853519491942
 30
0.0
 11
2.050408815242611
 21
3.820853519491942
 31
0.0
  0
LINE
  5
9C
330
1F
100
AcDbEntity
  8
TANGENT_LINES
100
AcDbLine
 10
1.675408815242611
 20
6.149593676972257
 30
0.0
 11
1.675408815242611
 21
4.6102235982321
 31
0.0
  0
LINE
  5
9D
330
1F
100
AcDbEntity
  8
TANGENT_LINES
100
AcDbLine
 10
2.011038736502454
 20
4.590538558862021
 30
0.0
 11
2.011038736502454
 21
4.570853519491942
 31
0.0
  0
LINE
  5
9E
330
1F
100
AcDbEntity
  8
VISIBLE
100
AcDbLine
 10
9.254148972722927
 20
6.149593676972257
 30
0.0
 11
9.254148972722927
 21
4.6102235982321
 31
0.0
  0
LINE
  5
9F
330
1F
100
AcDbEntity
  8
VISIBLE
100
AcDbLine
 10
1.675408815242611
 20
6.188963755712415
 30
0.0
 11
9.214778893982768
 21
6.188963755712415
 31
0.0
  0
LINE
  5
A0
330
1F
100
AcDbEntity
  8
TANGENT_LINES
100
AcDbLine
 10
8.879148972722927
 20
4.570853519491942
 30
0.0
 11
8.879148972722927
 21
4.590538558862021
 31
0.0
  0
LINE
  5
A1
330
1F
100
AcDbEntity
  8
TANGENT_LINES
100
AcDbLine
 10
9.214778893982768
 20
4.570853519491942
 30
0.0
 11
9.214778893982768
 21
4.590538558862021
 31
0.0
  0
LINE
  5
A2
330
1F
100
AcDbEntity
  8
VISIBLE
100
AcDbLine
 10
9.234463933352847
 20
4.6102235982321
 30
0.0
 11
9.234463933352847
 21
6.149593676972257
 31
0.0
  0
LINE
  5
A3
330
1F
100
AcDbEntity
  8
VISIBLE
100
AcDbLine
 10
1.517928500281981
 20
6.169278716342336
 30
0.0
 11
1.517928500281981
 21
3.840538558862021
 31
0.0
  0
LINE
  5
A4
330
1F
100
AcDbEntity
  8
VISIBLE
100
AcDbLine
 10
1.675408815242611
 20
4.590538558862021
 30
0.0
 11
2.011038736502454
 21
4.590538558862021
 31
0.0
  0
LINE
  5
A5
330
1F
100
AcDbEntity
  8
TANGENT_LINES
100
AcDbLine
 10
8.879148972722927
 20
4.6102235982321
 30
0.0
 11
9.214778893982768
 21
4.6102235982321
 31
0.0
  0
LINE
  5
A6
330
1F
100
AcDbEntity
  8
TANGENT_LINES
100
AcDbLine
 10
8.879148972722927
 20
4.570853519491942
 30
0.0
 11
8.859463933352847
 21
4.570853519491942
 31
0.0
  0
LINE
  5
A7
330
1F
100
AcDbEntity
  8
TANGENT_LINES
100
AcDbLine
 10
2.050408815242611
 20
3.8602235982321
 30
0.0
 11
8.839778893982768
 21
3.8602235982321
 31
0.0
  0
LINE
  5
A8
330
1F
100
AcDbEntity
  8
TANGENT_LINES
100
AcDbLine
 10
9.431314327053634
 20
6.169278716342336
 30
0.0
 11
9.3722592089434
 21
6.169278716342336
 31
0.0
  0
LINE
  5
A9
330
1F
100
AcDbEntity
  8
VISIBLE
100
AcDbLine
 10
1.636038736502453
 20
4.6102235982321
 30
0.0
 11
1.636038736502453
 21
6.149593676972257
 31
0.0
  0
LINE
  5
AA
330
1F
100
AcDbEntity
  8
VISIBLE
100
AcDbLine
 10
8.879148972722927
 20
4.570853519491942
 30
0.0
 11
8.879148972722927
 21
3.8602235982321
 31
0.0
  0
LINE
  5
AB
330
1F
100
AcDbEntity
  8
TANGENT_LINES
100
AcDbLine
 10
2.050408815242611
 20
3.840538558862021
 30
0.0
 11
2.050408815242611
 21
3.820853519491942
 31
0.0
  0
LINE
  5
AC
330
1F
100
AcDbEntity
  8
TANGENT_LINES
100
AcDbLine
 10
3.254148972722926
 20
4.649593676972257
 30
0.0
 11
3.886038736502454
 21
4.649593676972257
 31
0.0
  0
LINE
  5
AD
330
1F
100
AcDbEntity
  8
TANGENT_LINES
100
AcDbLine
 10
1.675408815242611
 20
4.590538558862021
 30
0.0
 11
1.675408815242611
 21
4.570853519491942
 31
0.0
  0
LINE
  5
AE
330
1F
100
AcDbEntity
  8
VISIBLE
100
AcDbLine
 10
1.655723775872532
 20
6.366129110043124
 30
0.0
 11
9.234463933352847
 21
6.366129110043124
 31
0.0
  0
LINE
  5
AF
330
1F
100
AcDbEntity
  8
TANGENT_LINES
100
AcDbLine
 10
1.655723775872532
 20
6.149593676972257
 30
0.0
 11
1.636038736502453
 21
6.149593676972257
 31
0.0
  0
LINE
  5
B0
330
1F
100
AcDbEntity
  8
VISIBLE
100
AcDbLine
 10
9.234463933352847
 20
6.307073991932887
 30
0.0
 11
1.655723775872532
 21
6.307073991932887
 31
0.0
  0
LINE
  5
B1
330
1F
100
AcDbEntity
  8
VISIBLE
100
AcDbLine
 10
8.879148972722927
 20
4.590538558862021
 30
0.0
 11
9.214778893982768
 21
4.590538558862021
 31
0.0
  0
LINE
  5
B2
330
1F
100
AcDbEntity
  8
VISIBLE
100
AcDbLine
 10
9.214778893982768
 20
4.570853519491942
 30
0.0
 11
8.879148972722927
 21
4.570853519491942
 31
0.0
  0
LINE
  5
B3
330
1F
100
AcDbEntity
  8
VISIBLE
100
AcDbLine
 10
9.3722592089434
 20
3.840538558862021
 30
0.0
 11
9.3722592089434
 21
6.169278716342336
 31
0.0
  0
LINE
  5
B4
330
1F
100
AcDbEntity
  8
TANGENT_LINES
100
AcDbLine
 10
2.030723775872532
 20
4.570853519491942
 30
0.0
 11
2.011038736502454
 21
4.570853519491942
 31
0.0
  0
LINE
  5
B5
330
1F
100
AcDbEntity
  8
TANGENT_LINES
100
AcDbLine
 10
8.839778893982768
 20
3.8602235982321
 30
0.0
 11
8.839778893982768
 21
4.570853519491942
 31
0.0
  0
LINE
  5
B6
330
1F
100
AcDbEntity
  8
TANGENT_LINES
100
AcDbLine
 10
1.675408815242611
 20
6.169278716342336
 30
0.0
 11
1.675408815242611
 21
6.188963755712415
 31
0.0
  0
LINE
  5
B7
330
1F
100
AcDbEntity
  8
TANGENT_LINES
100
AcDbLine
 10
8.879148972722927
 20
3.8602235982321
 30
0.0
 11
8.859463933352847
 21
3.8602235982321
 31
0.0
  0
LINE
  5
B8
330
1F
100
AcDbEntity
  8
TANGENT_LINES
100
AcDbLine
 10
9.431314327053634
 20
3.840538558862021
 30
0.0
 11
9.3722592089434
 21
3.840538558862021
 31
0.0
  0
LINE
  5
B9
330
1F
100
AcDbEntity
  8
VISIBLE
100
AcDbLine
 10
8.859463933352847
 20
3.8602235982321
 30
0.0
 11
8.859463933352847
 21
4.570853519491942
 31
0.0
  0
LINE
  5
BA
330
1F
100
AcDbEntity
  8
VISIBLE
100
AcDbLine
 10
2.050408815242611
 20
3.840538558862021
 30
0.0
 11
8.839778893982768
 21
3.840538558862021
 31
0.0
  0
LINE
  5
BB
330
1F
100
AcDbEntity
  8
VISIBLE
100
AcDbLine
 10
1.655723775872532
 20
3.70274328327147
 30
0.0
 11
9.234463933352847
 21
3.70274328327147
 31
0.0
  0
LINE
  5
BC
330
1F
100
AcDbEntity
  8
VISIBLE
100
AcDbLine
 10
2.030723775872532
 20
4.570853519491942
 30
0.0
 11
2.030723775872532
 21
3.8602235982321
 31
0.0
  0
LINE
  5
BD
330
1F
100
AcDbEntity
  8
TANGENT_LINES
100
AcDbLine
 10
2.030723775872532
 20
3.8602235982321
 30
0.0
 11
2.011038736502454
 21
3.8602235982321
 31
0.0
  0
LINE
  5
BE
330
1F
100
AcDbEntity
  8
TANGENT_LINES
100
AcDbLine
 10
9.214778893982768
 20
4.6102235982321
 30
0.0
 11
9.214778893982768
 21
6.149593676972257
 31
0.0
  0
LINE
  5
BF
330
1F
100
AcDbEntity
  8
TANGENT_LINES
100
AcDbLine
 10
9.254148972722927
 20
6.149593676972257
 30
0.0
 11
9.234463933352847
 21
6.149593676972257
 31
0.0
  0
LINE
  5
C0
330
1F
100
AcDbEntity
  8
TANGENT_LINES
100
AcDbLine
 10
9.214778893982768
 20
6.188963755712415
 30
0.0
 11
9.214778893982768
 21
6.169278716342336
 31
0.0
  0
LINE
  5
C1
330
1F
100
AcDbEntity
  8
VISIBLE
100
AcDbLine
 10
1.655723775872532
 20
6.149593676972257
 30
0.0
 11
1.655723775872532
 21
4.6102235982321
 31
0.0
  0
LINE
  5
C2
330
1F
100
AcDbEntity
  8
VISIBLE
100
AcDbLine
 10
2.011038736502454
 20
4.570853519491942
 30
0.0
 11
1.675408815242611
 21
4.570853519491942
 31
0.0
  0
LINE
  5
C3
330
1F
100
AcDbEntity
  8
TANGENT_LINES
100
AcDbLine
 10
1.655723775872532
 20
4.6102235982321
 30
0.0
 11
1.636038736502453
 21
4.6102235982321
 31
0.0
  0
LINE
  5
C4
330
1F
100
AcDbEntity
  8
TANGENT_LINES
100
AcDbLine
 10
1.655723775872532
 20
6.307073991932887
 30
0.0
 11
1.655723775872532
 21
6.366129110043124
 31
0.0
  0
LINE
  5
C5
330
1F
100
AcDbEntity
  8
TANGENT_LINES
100
AcDbLine
 10
3.886038736502454
 20
4.649593676972257
 30
0.0
 11
3.886038736502454
 21
4.629908637602179
 31
0.0
  0
LINE
  5
C6
330
1F
100
AcDbEntity
  8
TANGENT_LINES
100
AcDbLine
 10
3.886038736502454
 20
4.649593676972257
 30
0.0
 11
3.94509385461269
 21
4.649593676972257
 31
0.0
  0
LINE
  5
C7
330
1F
100
AcDbEntity
  8
TANGENT_LINES
100
AcDbLine
 10
3.254148972722926
 20
4.649593676972257
 30
0.0
 11
3.254148972722926
 21
4.629908637602179
 31
0.0
  0
ARC
  5
C8
330
1F
100
AcDbEntity
  8
VISIBLE
100
AcDbCircle
 10
3.214778893982769
 20
4.649593676972257
 30
0.0
 40
0.0196850393700787
100
AcDbArc
 50
180.0
 51
270.0
  0
ARC
  5
C9
330
1F
100
AcDbEntity
  8
VISIBLE
100
AcDbCircle
 10
3.925408815242611
 20
4.649593676972257
 30
0.0
 40
0.0196850393700787
100
AcDbArc
 50
270.0
 51
0.0
  0
ARC
  5
CA
330
1F
100
AcDbEntity
  8
TANGENT_LINES
100
AcDbCircle
 10
3.925408815242611
 20
4.649593676972257
 30
0.0
 40
0.0393700787401575
100
AcDbArc
 50
270.0
 51
0.0
  0
ARC
  5
CB
330
1F
100
AcDbEntity
  8
TANGENT_LINES
100
AcDbCircle
 10
3.214778893982769
 20
4.649593676972257
 30
0.0
 40
0.0393700787401575
100
AcDbArc
 50
180.0
 51
270.0
  0
LINE
  5
CC
330
1F
100
AcDbEntity
  8
TANGENT_LINES
100
AcDbLine
 10
3.214778893982769
 20
4.6102235982321
 30
0.0
 11
3.214778893982769
 21
4.629908637602179
 31
0.0
  0
LINE
  5
CD
330
1F
100
AcDbEntity
  8
TANGENT_LINES
100
AcDbLine
 10
3.19509385461269
 20
4.649593676972257
 30
0.0
 11
3.254148972722926
 21
4.649593676972257
 31
0.0
  0
LINE
  5
CE
330
1F
100
AcDbEntity
  8
TANGENT_LINES
100
AcDbLine
 10
3.925408815242611
 20
4.629908637602179
 30
0.0
 11
3.925408815242611
 21
4.6102235982321
 31
0.0
  0
LINE
  5
CF
330
1F
100
AcDbEntity
  8
VISIBLE
100
AcDbLine
 10
3.94509385461269
 20
6.149593676972257
 30
0.0
 11
3.94509385461269
 21
6.169278716342336
 31
0.0
  0
LINE
  5
D0
330
1F
100
AcDbEntity
  8
TANGENT_LINES
100
AcDbLine
 10
3.19509385461269
 20
4.649593676972257
 30
0.0
 11
3.175408815242611
 21
4.649593676972257
 31
0.0
  0
LINE
  5
D1
330
1F
100
AcDbEntity
  8
TANGENT_LINES
100
AcDbLine
 10
3.94509385461269
 20
6.149593676972257
 30
0.0
 11
3.964778893982769
 21
6.149593676972257
 31
0.0
  0
ARC
  5
D2
330
1F
100
AcDbEntity
  8
TANGENT_LINES
100
AcDbCircle
 10
8.879148972722927
 20
4.570853519491942
 30
0.0
 40
0.0393700787401575
100
AcDbArc
 50
90.0
 51
180.0
  0
LINE
  5
D3
330
1F
100
AcDbEntity
  8
TANGENT_LINES
100
AcDbLine
 10
2.050408815242611
 20
4.570853519491942
 30
0.0
 11
2.030723775872532
 21
4.570853519491942
 31
0.0
  0
ARC
  5
D4
330
1F
100
AcDbEntity
  8
TANGENT_LINES
100
AcDbCircle
 10
2.011038736502454
 20
4.570853519491942
 30
0.0
 40
0.0393700787401575
100
AcDbArc
 50
0.0
 51
90.0
  0
LINE
  5
D5
330
1F
100
AcDbEntity
  8
TANGENT_LINES
100
AcDbLine
 10
9.214778893982768
 20
6.149593676972257
 30
0.0
 11
9.214778893982768
 21
6.169278716342336
 31
0.0
  0
LINE
  5
D6
330
1F
100
AcDbEntity
  8
TANGENT_LINES
100
AcDbLine
 10
3.964778893982769
 20
4.649593676972257
 30
0.0
 11
3.94509385461269
 21
4.649593676972257
 31
0.0
  0
LINE
  5
D7
330
1F
100
AcDbEntity
  8
TANGENT_LINES
100
AcDbLine
 10
3.964778893982769
 20
6.149593676972257
 30
0.0
 11
3.964778893982769
 21
6.169278716342336
 31
0.0
  0
LINE
  5
D8
330
1F
100
AcDbEntity
  8
TANGENT_LINES
100
AcDbLine
 10
8.879148972722927
 20
4.6102235982321
 30
0.0
 11
8.879148972722927
 21
4.590538558862021
 31
0.0
  0
LINE
  5
D9
330
1F
100
AcDbEntity
  8
TANGENT_LINES
100
AcDbLine
 10
9.214778893982768
 20
4.6102235982321
 30
0.0
 11
9.214778893982768
 21
4.590538558862021
 31
0.0
  0
ARC
  5
DA
330
1F
100
AcDbEntity
  8
VISIBLE
100
AcDbCircle
 10
1.675408815242611
 20
6.149593676972257
 30
0.0
 40
0.0196850393700787
100
AcDbArc
 50
90.0
 51
180.0
  0
ARC
  5
DB
330
1F
100
AcDbEntity
  8
VISIBLE
100
AcDbCircle
 10
2.050408815242611
 20
3.8602235982321
 30
0.0
 40
0.0393700787401575
100
AcDbArc
 50
180.0
 51
270.0
  0
ARC
  5
DC
330
1F
100
AcDbEntity
  8
VISIBLE
100
AcDbCircle
 10
9.234463933352847
 20
6.169278716342336
 30
0.0
 40
0.1377952755905512
100
AcDbArc
 50
0.0
 51
90.0
  0
ARC
  5
DD
330
1F
100
AcDbEntity
  8
VISIBLE
100
AcDbCircle
 10
2.011038736502454
 20
4.570853519491942
 30
0.0
 40
0.0196850393700787
100
AcDbArc
 50
0.0
 51
90.0
  0
ARC
  5
DE
330
1F
100
AcDbEntity
  8
VISIBLE
100
AcDbCircle
 10
9.214778893982768
 20
6.149593676972257
 30
0.0
 40
0.0196850393700787
100
AcDbArc
 50
0.0
 51
90.0
  0
LINE
  5
DF
330
1F
100
AcDbEntity
  8
VISIBLE
100
AcDbLine
 10
3.19509385461269
 20
6.149593676972257
 30
0.0
 11
3.19509385461269
 21
6.169278716342336
 31
0.0
  0
ARC
  5
E0
330
1F
100
AcDbEntity
  8
VISIBLE
100
AcDbCircle
 10
1.655723775872532
 20
6.169278716342336
 30
0.0
 40
0.1377952755905512
100
AcDbArc
 50
90.0
 51
180.0
  0
ARC
  5
E1
330
1F
100
AcDbEntity
  8
VISIBLE
100
AcDbCircle
 10
9.214778893982768
 20
4.6102235982321
 30
0.0
 40
0.0393700787401575
100
AcDbArc
 50
270.0
 51
0.0
  0
ARC
  5
E2
330
1F
100
AcDbEntity
  8
VISIBLE
100
AcDbCircle
 10
9.234463933352847
 20
6.169278716342336
 30
0.0
 40
0.1968503937007874
100
AcDbArc
 50
0.0
 51
90.0
  0
ARC
  5
E3
330
1F
100
AcDbEntity
  8
VISIBLE
100
AcDbCircle
 10
1.655723775872532
 20
6.169278716342336
 30
0.0
 40
0.1968503937007874
100
AcDbArc
 50
90.0
 51
180.0
  0
LINE
  5
E4
330
1F
100
AcDbEntity
  8
TANGENT_LINES
100
AcDbLine
 10
1.655723775872532
 20
6.149593676972257
 30
0.0
 11
1.675408815242611
 21
6.149593676972257
 31
0.0
  0
ARC
  5
E5
330
1F
100
AcDbEntity
  8
VISIBLE
100
AcDbCircle
 10
1.655723775872532
 20
3.840538558862021
 30
0.0
 40
0.1377952755905512
100
AcDbArc
 50
180.0
 51
270.0
  0
ARC
  5
E6
330
1F
100
AcDbEntity
  8
VISIBLE
100
AcDbCircle
 10
9.214778893982768
 20
4.6102235982321
 30
0.0
 40
0.0196850393700787
100
AcDbArc
 50
270.0
 51
0.0
  0
ARC
  5
E7
330
1F
100
AcDbEntity
  8
VISIBLE
100
AcDbCircle
 10
9.214778893982768
 20
6.149593676972257
 30
0.0
 40
0.0393700787401575
100
AcDbArc
 50
0.0
 51
90.0
  0
ARC
  5
E8
330
1F
100
AcDbEntity
  8
VISIBLE
100
AcDbCircle
 10
2.050408815242611
 20
3.8602235982321
 30
0.0
 40
0.0196850393700787
100
AcDbArc
 50
180.0
 51
270.0
  0
ARC
  5
E9
330
1F
100
AcDbEntity
  8
VISIBLE
100
AcDbCircle
 10
9.234463933352847
 20
3.840538558862021
 30
0.0
 40
0.1377952755905512
100
AcDbArc
 50
270.0
 51
0.0
  0
ARC
  5
EA
330
1F
100
AcDbEntity
  8
VISIBLE
100
AcDbCircle
 10
1.675408815242611
 20
4.6102235982321
 30
0.0
 40
0.0196850393700787
100
AcDbArc
 50
180.0
 51
270.0
  0
ARC
  5
EB
330
1F
100
AcDbEntity
  8
VISIBLE
100
AcDbCircle
 10
1.675408815242611
 20
4.6102235982321
 30
0.0
 40
0.0393700787401575
100
AcDbArc
 50
180.0
 51
270.0
  0
ARC
  5
EC
330
1F
100
AcDbEntity
  8
VISIBLE
100
AcDbCircle
 10
1.655723775872532
 20
3.840538558862021
 30
0.0
 40
0.1968503937007874
100
AcDbArc
 50
180.0
 51
270.0
  0
ARC
  5
ED
330
1F
100
AcDbEntity
  8
VISIBLE
100
AcDbCircle
 10
8.839778893982768
 20
3.8602235982321
 30
0.0
 40
0.0393700787401575
100
AcDbArc
 50
270.0
 51
0.0
  0
LINE
  5
EE
330
1F
100
AcDbEntity
  8
TANGENT_LINES
100
AcDbLine
 10
2.011038736502454
 20
4.6102235982321
 30
0.0
 11
2.011038736502454
 21
4.590538558862021
 31
0.0
  0
LINE
  5
EF
330
1F
100
AcDbEntity
  8
TANGENT_LINES
100
AcDbLine
 10
2.050408815242611
 20
3.8602235982321
 30
0.0
 11
2.050408815242611
 21
3.840538558862021
 31
0.0
  0
ARC
  5
F0
330
1F
100
AcDbEntity
  8
VISIBLE
100
AcDbCircle
 10
9.234463933352847
 20
3.840538558862021
 30
0.0
 40
0.1968503937007874
100
AcDbArc
 50
270.0
 51
0.0
  0
LINE
  5
F1
330
1F
100
AcDbEntity
  8
TANGENT_LINES
100
AcDbLine
 10
1.675408815242611
 20
6.169278716342336
 30
0.0
 11
1.675408815242611
 21
6.149593676972257
 31
0.0
  0
LINE
  5
F2
330
1F
100
AcDbEntity
  8
TANGENT_LINES
100
AcDbLine
 10
8.839778893982768
 20
3.8602235982321
 30
0.0
 11
8.859463933352847
 21
3.8602235982321
 31
0.0
  0
LINE
  5
F3
330
1F
100
AcDbEntity
  8
TANGENT_LINES
100
AcDbLine
 10
2.050408815242611
 20
3.8602235982321
 30
0.0
 11
2.030723775872532
 21
3.8602235982321
 31
0.0
  0
LINE
  5
F4
330
1F
100
AcDbEntity
  8
TANGENT_LINES
100
AcDbLine
 10
8.839778893982768
 20
3.8602235982321
 30
0.0
 11
8.839778893982768
 21
3.840538558862021
 31
0.0
  0
LINE
  5
F5
330
1F
100
AcDbEntity
  8
TANGENT_LINES
100
AcDbLine
 10
1.675408815242611
 20
4.590538558862021
 30
0.0
 11
1.675408815242611
 21
4.6102235982321
 31
0.0
  0
ARC
  5
F6
330
1F
100
AcDbEntity
  8
VISIBLE
100
AcDbCircle
 10
8.839778893982768
 20
3.8602235982321
 30
0.0
 40
0.0196850393700787
100
AcDbArc
 50
270.0
 51
0.0
  0
LINE
  5
F7
330
1F
100
AcDbEntity
  8
TANGENT_LINES
100
AcDbLine
 10
3.175408815242611
 20
6.149593676972257
 30
0.0
 11
3.19509385461269
 21
6.149593676972257
 31
0.0
  0
LINE
  5
F8
330
1F
100
AcDbEntity
  8
TANGENT_LINES
100
AcDbLine
 10
3.175408815242611
 20
6.149593676972257
 30
0.0
 11
3.175408815242611
 21
6.169278716342336
 31
0.0
  0
LINE
  5
F9
330
1F
100
AcDbEntity
  8
TANGENT_LINES
100
AcDbLine
 10
8.839778893982768
 20
4.570853519491942
 30
0.0
 11
8.859463933352847
 21
4.570853519491942
 31
0.0
  0
LINE
  5
FA
330
1F
100
AcDbEntity
  8
TANGENT_LINES
100
AcDbLine
 10
9.214778893982768
 20
4.6102235982321
 30
0.0
 11
9.234463933352847
 21
4.6102235982321
 31
0.0
  0
ARC
  5
FB
330
1F
100
AcDbEntity
  8
VISIBLE
100
AcDbCircle
 10
8.879148972722927
 20
4.570853519491942
 30
0.0
 40
0.0196850393700787
100
AcDbArc
 50
90.0
 51
180.0
  0
LINE
  5
FC
330
1F
100
AcDbEntity
  8
TANGENT_LINES
100
AcDbLine
 10
1.655723775872532
 20
4.6102235982321
 30
0.0
 11
1.675408815242611
 21
4.6102235982321
 31
0.0
  0
ARC
  5
FD
330
1F
100
AcDbEntity
  8
VISIBLE
100
AcDbCircle
 10
1.675408815242611
 20
6.149593676972257
 30
0.0
 40
0.0393700787401575
100
AcDbArc
 50
90.0
 51
180.0
  0
LINE
  5
FE
330
1F
100
AcDbEntity
  8
TANGENT_LINES
100
AcDbLine
 10
9.214778893982768
 20
6.149593676972257
 30
0.0
 11
9.234463933352847
 21
6.149593676972257
 31
0.0
  0
LINE
  5
FF
330
1F
100
AcDbEntity
  8
BORDER_FRAME
100
AcDbLine
 10
0.38
 20
0.38
 30
0.0
 11
0.38
 21
8.12
 31
0.0
  0
LINE
  5
102
330
1F
100
AcDbEntity
  8
BORDER_FRAME
100
AcDbLine
 10
0.38
 20
8.12
 30
0.0
 11
10.62
 21
8.12
 31
0.0
  0
LINE
  5
103
330
1F
100
AcDbEntity
  8
BORDER_FRAME
100
AcDbLine
 10
10.62
 20
8.12
 30
0.0
 11
10.62
 21
0.38
 31
0.0
  0
LINE
  5
104
330
1F
100
AcDbEntity
  8
BORDER_FRAME
100
AcDbLine
 10
10.62
 20
0.38
 30
0.0
 11
0.38
 21
0.38
 31
0.0
  0
LINE
  5
105
330
1F
100
AcDbEntity
  8
BORDER_ZONES
100
AcDbLine
 10
5.5
 20
0.38
 30
0.0
 11
5.5
 21
0.019
 31
0.0
  0
LINE
  5
107
330
1F
100
AcDbEntity
  8
BORDER_ZONES
100
AcDbLine
 10
5.5
 20
8.12
 30
0.0
 11
5.5
 21
8.481
 31
0.0
  0
MTEXT
  5
108
330
1F
100
AcDbEntity
  8
BORDER_ZONES
100
AcDbMText
 10
2.75
 20
0.19
 30
0.0
 40
0.18
 41
0.0
 71
     5
 72
     1
  1
2
  7
ONSHAPE-STANDARD
  0
MTEXT
  5
10A
330
1F
100
AcDbEntity
  8
BORDER_ZONES
100
AcDbMText
 10
2.75
 20
8.309999999999999
 30
0.0
 40
0.18
 41
0.0
 71
     5
 72
     1
  1
2
  7
ONSHAPE-STANDARD
  0
MTEXT
  5
10B
330
1F
100
AcDbEntity
  8
BORDER_ZONES
100
AcDbMText
 10
8.25
 20
0.19
 30
0.0
 40
0.18
 41
0.0
 71
     5
 72
     1
  1
1
  7
ONSHAPE-STANDARD
  0
MTEXT
  5
10C
330
1F
100
AcDbEntity
  8
BORDER_ZONES
100
AcDbMText
 10
8.25
 20
8.309999999999999
 30
0.0
 40
0.18
 41
0.0
 71
     5
 72
     1
  1
1
  7
ONSHAPE-STANDARD
  0
LINE
  5
10D
330
1F
100
AcDbEntity
  8
BORDER_ZONES
100
AcDbLine
 10
0.38
 20
4.25
 30
0.0
 11
0.019
 21
4.25
 31
0.0
  0
LINE
  5
10E
330
1F
100
AcDbEntity
  8
BORDER_ZONES
100
AcDbLine
 10
10.62
 20
4.25
 30
0.0
 11
10.981
 21
4.25
 31
0.0
  0
MTEXT
  5
10F
330
1F
100
AcDbEntity
  8
BORDER_ZONES
100
AcDbMText
 10
0.19
 20
2.125
 30
0.0
 40
0.18
 41
0.0
 71
     5
 72
     1
  1
A
  7
ONSHAPE-STANDARD
  0
MTEXT
  5
110
330
1F
100
AcDbEntity
  8
BORDER_ZONES
100
AcDbMText
 10
10.81
 20
2.125
 30
0.0
 40
0.18
 41
0.0
 71
     5
 72
     1
  1
A
  7
ONSHAPE-STANDARD
  0
MTEXT
  5
111
330
1F
100
AcDbEntity
  8
BORDER_ZONES
100
AcDbMText
 10
0.19
 20
6.375
 30
0.0
 40
0.18
 41
0.0
 71
     5
 72
     1
  1
B
  7
ONSHAPE-STANDARD
  0
MTEXT
  5
112
330
1F
100
AcDbEntity
  8
BORDER_ZONES
100
AcDbMText
 10
10.81
 20
6.375
 30
0.0
 40
0.18
 41
0.0
 71
     5
 72
     1
  1
B
  7
ONSHAPE-STANDARD
  0
LINE
  5
113
330
1F
100
AcDbEntity
  8
TITLE_BLOCK
100
AcDbLine
 10
4.544999999999999
 20
0.38
 30
0.0
 11
4.544999999999999
 21
1.88
 31
0.0
  0
LINE
  5
115
330
1F
100
AcDbEntity
  8
TITLE_BLOCK
100
AcDbLine
 10
4.544999999999999
 20
0.38
 30
0.0
 11
5.744999999999999
 21
0.38
 31
0.0
  0
LINE
  5
116
330
1F
100
AcDbEntity
  8
TITLE_BLOCK
100
AcDbLine
 10
4.544999999999999
 20
0.6799999999999999
 30
0.0
 11
5.744999999999999
 21
0.6799999999999999
 31
0.0
  0
LINE
  5
117
330
1F
100
AcDbEntity
  8
TITLE_BLOCK
100
AcDbLine
 10
4.544999999999999
 20
0.8
 30
0.0
 11
5.744999999999999
 21
0.8
 31
0.0
  0
LINE
  5
118
330
1F
100
AcDbEntity
  8
TITLE_BLOCK
100
AcDbLine
 10
4.544999999999999
 20
1.004
 30
0.0
 11
5.744999999999999
 21
1.004
 31
0.0
  0
LINE
  5
119
330
1F
100
AcDbEntity
  8
TITLE_BLOCK
100
AcDbLine
 10
4.544999999999999
 20
1.178
 30
0.0
 11
5.744999999999999
 21
1.178
 31
0.0
  0
LINE
  5
11A
330
1F
100
AcDbEntity
  8
TITLE_BLOCK
100
AcDbLine
 10
4.544999999999999
 20
1.88
 30
0.0
 11
5.744999999999999
 21
1.88
 31
0.0
  0
MTEXT
  5
11B
330
1F
100
AcDbEntity
  8
TITLE_BLOCK
100
AcDbMText
 10
4.571399999999999
 20
1.8368
 30
0.0
 40
0.048
 41
1.176
 71
     1
 72
     1
  1
UNLESS OTHERWISE SPECIFIED, DIMENSIONS ARE IN INCHES
  7
ONSHAPE-STANDARD
  0
MTEXT
  5
11C
330
1F
100
AcDbEntity
  8
TITLE_BLOCK
100
AcDbMText
 10
4.571399999999999
 20
1.6568
 30
0.0
 40
0.048
 41
0.5880000000000005
 71
     1
 72
     1
  1
    .XX = .0-^J  .XXX = .00-^J.XXXX = .000-
  7
ONSHAPE-STANDARD
  0
MTEXT
  5
11D
330
1F
100
AcDbEntity
  8
TITLE_BLOCK
100
AcDbMText
 10
5.16876
 20
1.66112
 30
0.0
 40
0.0432
 41
0.5879999999999996
 71
     1
 72
     1
  1
^JANGULAR =  ^JFRACTIONAL = 
  7
ONSHAPE-STANDARD
  0
MTEXT
  5
11E
330
1F
100
AcDbEntity
  8
TITLE_BLOCK
100
AcDbMText
 10
4.571399999999999
 20
1.3688
 30
0.0
 40
0.048
 41
0.5880000000000005
 71
     1
 72
     1
  1
SURFACE FINISH
  7
ONSHAPE-STANDARD
  0
LINE
  5
11F
330
1F
100
AcDbEntity
  8
TITLE_BLOCK
100
AcDbLine
 10
5.085
 20
1.298
 30
0.0
 11
5.115
 21
1.246038475772934
 31
0.0
  0
LINE
  5
120
330
1F
100
AcDbEntity
  8
TITLE_BLOCK
100
AcDbLine
 10
5.115
 20
1.246038475772934
 30
0.0
 11
5.178
 21
1.355157676649773
 31
0.0
  0
LINE
  5
121
330
1F
100
AcDbEntity
  8
TITLE_BLOCK
100
AcDbLine
 10
5.178
 20
1.355157676649773
 30
0.0
 11
5.244
 21
1.355157676649773
 31
0.0
  0
MTEXT
  5
122
330
1F
100
AcDbEntity
  8
TITLE_BLOCK
100
AcDbMText
 10
5.145
 20
1.12184
 30
0.0
 40
0.0624
 41
1.176
 71
     2
 72
     1
  1
DO NOT SCALE DRAWING
  7
ONSHAPE-STANDARD
  0
MTEXT
  5
123
330
1F
100
AcDbEntity
  8
TITLE_BLOCK
100
AcDbMText
 10
5.145
 20
0.9608
 30
0.0
 40
0.048
 41
1.176
 71
     2
 72
     1
  1
BREAK ALL SHARP EDGES AND REMOVE BURRS
  7
ONSHAPE-STANDARD
  0
CIRCLE
  5
124
330
1F
100
AcDbEntity
  8
TITLE_BLOCK
100
AcDbCircle
 10
5.01
 20
0.5287999999999999
 30
0.0
 40
0.054
  0
CIRCLE
  5
125
330
1F
100
AcDbEntity
  8
TITLE_BLOCK
100
AcDbCircle
 10
5.01
 20
0.5287999999999999
 30
0.0
 40
0.108
  0
LINE
  5
126
330
1F
100
AcDbEntity
  8
TITLE_BLOCK
100
AcDbLine
 10
5.037
 20
0.5287999999999999
 30
0.0
 11
4.983
 21
0.5287999999999999
 31
0.0
  0
LINE
  5
127
330
1F
100
AcDbEntity
  8
TITLE_BLOCK
100
AcDbLine
 10
5.01
 20
0.5558
 30
0.0
 11
5.01
 21
0.5017999999999999
 31
0.0
  0
LINE
  5
128
330
1F
100
AcDbEntity
  8
TITLE_BLOCK
100
AcDbLine
 10
5.064
 20
0.5287999999999999
 30
0.0
 11
5.145
 21
0.5287999999999999
 31
0.0
  0
LINE
  5
129
330
1F
100
AcDbEntity
  8
TITLE_BLOCK
100
AcDbLine
 10
5.01
 20
0.5828
 30
0.0
 11
5.01
 21
0.6638
 31
0.0
  0
LINE
  5
12A
330
1F
100
AcDbEntity
  8
TITLE_BLOCK
100
AcDbLine
 10
4.956
 20
0.5287999999999999
 30
0.0
 11
4.875
 21
0.5287999999999999
 31
0.0
  0
LINE
  5
12B
330
1F
100
AcDbEntity
  8
TITLE_BLOCK
100
AcDbLine
 10
5.01
 20
0.4747999999999999
 30
0.0
 11
5.01
 21
0.3937999999999999
 31
0.0
  0
LINE
  5
12C
330
1F
100
AcDbEntity
  8
TITLE_BLOCK
100
AcDbLine
 10
5.387999999999999
 20
0.4208
 30
0.0
 11
5.387999999999999
 21
0.6367999999999999
 31
0.0
  0
LINE
  5
12D
330
1F
100
AcDbEntity
  8
TITLE_BLOCK
100
AcDbLine
 10
5.387999999999999
 20
0.6367999999999999
 30
0.0
 11
5.172
 21
0.5828
 31
0.0
  0
LINE
  5
12E
330
1F
100
AcDbEntity
  8
TITLE_BLOCK
100
AcDbLine
 10
5.172
 20
0.5828
 30
0.0
 11
5.172
 21
0.4747999999999999
 31
0.0
  0
LINE
  5
12F
330
1F
100
AcDbEntity
  8
TITLE_BLOCK
100
AcDbLine
 10
5.172
 20
0.4747999999999999
 30
0.0
 11
5.387999999999999
 21
0.4208
 31
0.0
  0
LINE
  5
130
330
1F
100
AcDbEntity
  8
TITLE_BLOCK
100
AcDbLine
 10
5.306999999999999
 20
0.5287999999999999
 30
0.0
 11
5.4015
 21
0.5287999999999999
 31
0.0
  0
LINE
  5
131
330
1F
100
AcDbEntity
  8
TITLE_BLOCK
100
AcDbLine
 10
5.290799999999999
 20
0.5287999999999999
 30
0.0
 11
5.2692
 21
0.5287999999999999
 31
0.0
  0
LINE
  5
132
330
1F
100
AcDbEntity
  8
TITLE_BLOCK
100
AcDbLine
 10
5.252999999999999
 20
0.5287999999999999
 30
0.0
 11
5.158499999999999
 21
0.5287999999999999
 31
0.0
  0
MTEXT
  5
133
330
1F
100
AcDbEntity
  8
TITLE_BLOCK
100
AcDbMText
 10
5.145
 20
0.7568
 30
0.0
 40
0.048
 41
1.176
 71
     2
 72
     1
  1
THIRD ANGLE PROJECTION
  7
ONSHAPE-STANDARD
  0
LINE
  5
134
330
1F
100
AcDbEntity
  8
TITLE_BLOCK
100
AcDbLine
 10
5.744999999999999
 20
0.38
 30
0.0
 11
5.744999999999999
 21
1.88
 31
0.0
  0
LINE
  5
135
330
1F
100
AcDbEntity
  8
TITLE_BLOCK
100
AcDbLine
 10
6.345
 20
0.8
 30
0.0
 11
6.345
 21
1.88
 31
0.0
  0
LINE
  5
136
330
1F
100
AcDbEntity
  8
TITLE_BLOCK
100
AcDbLine
 10
7.094999999999999
 20
0.8
 30
0.0
 11
7.094999999999999
 21
1.88
 31
0.0
  0
LINE
  5
137
330
1F
100
AcDbEntity
  8
TITLE_BLOCK
100
AcDbLine
 10
6.645
 20
0.38
 30
0.0
 11
6.645
 21
0.8
 31
0.0
  0
LINE
  5
138
330
1F
100
AcDbEntity
  8
TITLE_BLOCK
100
AcDbLine
 10
5.744999999999999
 20
1.88
 30
0.0
 11
7.545
 21
1.88
 31
0.0
  0
LINE
  5
139
330
1F
100
AcDbEntity
  8
TITLE_BLOCK
100
AcDbLine
 10
5.744999999999999
 20
1.7
 30
0.0
 11
7.545
 21
1.7
 31
0.0
  0
LINE
  5
13A
330
1F
100
AcDbEntity
  8
TITLE_BLOCK
100
AcDbLine
 10
5.744999999999999
 20
1.52
 30
0.0
 11
7.545
 21
1.52
 31
0.0
  0
LINE
  5
13B
330
1F
100
AcDbEntity
  8
TITLE_BLOCK
100
AcDbLine
 10
5.744999999999999
 20
1.34
 30
0.0
 11
7.545
 21
1.34
 31
0.0
  0
LINE
  5
13C
330
1F
100
AcDbEntity
  8
TITLE_BLOCK
100
AcDbLine
 10
5.744999999999999
 20
1.16
 30
0.0
 11
7.545
 21
1.16
 31
0.0
  0
LINE
  5
13D
330
1F
100
AcDbEntity
  8
TITLE_BLOCK
100
AcDbLine
 10
5.744999999999999
 20
0.98
 30
0.0
 11
7.545
 21
0.98
 31
0.0
  0
LINE
  5
13E
330
1F
100
AcDbEntity
  8
TITLE_BLOCK
100
AcDbLine
 10
5.744999999999999
 20
0.8
 30
0.0
 11
7.545
 21
0.8
 31
0.0
  0
MTEXT
  5
13F
330
1F
100
AcDbEntity
  8
TITLE_BLOCK
100
AcDbMText
 10
6.3714
 20
1.8368
 30
0.0
 40
0.048
 41
0.7349999999999991
 71
     1
 72
     1
  1
NAME
  7
ONSHAPE-STANDARD
  0
MTEXT
  5
140
330
1F
100
AcDbEntity
  8
TITLE_BLOCK
100
AcDbMText
 10
7.319999999999999
 20
1.8368
 30
0.0
 40
0.048
 41
0.4410000000000011
 71
     2
 72
     1
  1
DATE
  7
ONSHAPE-STANDARD
  0
MTEXT
  5
141
330
1F
100
AcDbEntity
  8
TITLE_BLOCK
100
AcDbMText
 10
5.771399999999999
 20
1.6568
 30
0.0
 40
0.048
 41
0.5880000000000005
 71
     1
 72
     1
  1
DRAWN
  7
ONSHAPE-STANDARD
  0
MTEXT
  5
142
102
{ACAD_XDICTIONARY
360
143
102
}
330
1F
100
AcDbEntity
  8
TITLE_BLOCK
100
AcDbMText
 10
6.719999999999999
 20
1.61
 30
0.0
 40
0.04032
 41
0.7499999999999991
 71
     5
 72
     1
  1
DOMINIK PALKA
  7
ONSHAPE-STANDARD-FIELDS
1001
ACAD
1000
ACAD_MTEXT_DEFINED_HEIGHT_BEGIN
1070
    46
1040
0.1800000000000002
1000
ACAD_MTEXT_DEFINED_HEIGHT_END
  0
MTEXT
  5
149
102
{ACAD_XDICTIONARY
360
14A
102
}
330
1F
100
AcDbEntity
  8
TITLE_BLOCK
100
AcDbMText
 10
7.319999999999999
 20
1.61
 30
0.0
 40
0.04032
 41
0.4500000000000011
 71
     5
 72
     1
  1
12/05/2021
  7
ONSHAPE-STANDARD-FIELDS
1001
ACAD
1000
ACAD_MTEXT_DEFINED_HEIGHT_BEGIN
1070
    46
1040
0.1800000000000002
1000
ACAD_MTEXT_DEFINED_HEIGHT_END
  0
MTEXT
  5
14F
330
1F
100
AcDbEntity
  8
TITLE_BLOCK
100
AcDbMText
 10
5.771399999999999
 20
1.4768
 30
0.0
 40
0.048
 41
0.5880000000000005
 71
     1
 72
     1
  1
CHECKED
  7
ONSHAPE-STANDARD
  0
MTEXT
  5
150
330
1F
100
AcDbEntity
  8
TITLE_BLOCK
100
AcDbMText
 10
6.719999999999999
 20
1.43
 30
0.0
 40
0.04032
 41
0.7499999999999991
 71
     5
 72
     1
  1
 
  7
ONSHAPE-STANDARD-FIELDS
1001
ACAD
1000
ACAD_MTEXT_DEFINED_HEIGHT_BEGIN
1070
    46
1040
0.1800000000000002
1000
ACAD_MTEXT_DEFINED_HEIGHT_END
  0
MTEXT
  5
151
330
1F
100
AcDbEntity
  8
TITLE_BLOCK
100
AcDbMText
 10
7.319999999999999
 20
1.43
 30
0.0
 40
0.04032
 41
0.4500000000000011
 71
     5
 72
     1
  1
 
  7
ONSHAPE-STANDARD-FIELDS
1001
ACAD
1000
ACAD_MTEXT_DEFINED_HEIGHT_BEGIN
1070
    46
1040
0.1800000000000002
1000
ACAD_MTEXT_DEFINED_HEIGHT_END
  0
MTEXT
  5
152
330
1F
100
AcDbEntity
  8
TITLE_BLOCK
100
AcDbMText
 10
5.771399999999999
 20
1.2968
 30
0.0
 40
0.048
 41
0.5880000000000005
 71
     1
 72
     1
  1
APPROVED
  7
ONSHAPE-STANDARD
  0
MTEXT
  5
153
102
{ACAD_XDICTIONARY
360
154
102
}
330
1F
100
AcDbEntity
  8
TITLE_BLOCK
100
AcDbMText
 10
6.719999999999999
 20
1.25
 30
0.0
 40
0.04032
 41
0.7499999999999991
 71
     5
 72
     1
  1
----
  7
ONSHAPE-STANDARD-FIELDS
1001
ACAD
1000
ACAD_MTEXT_DEFINED_HEIGHT_BEGIN
1070
    46
1040
0.1799999999999997
1000
ACAD_MTEXT_DEFINED_HEIGHT_END
  0
MTEXT
  5
159
102
{ACAD_XDICTIONARY
360
15A
102
}
330
1F
100
AcDbEntity
  8
TITLE_BLOCK
100
AcDbMText
 10
7.319999999999999
 20
1.25
 30
0.0
 40
0.04032
 41
0.4500000000000011
 71
     5
 72
     1
  1
----
  7
ONSHAPE-STANDARD-FIELDS
1001
ACAD
1000
ACAD_MTEXT_DEFINED_HEIGHT_BEGIN
1070
    46
1040
0.1799999999999997
1000
ACAD_MTEXT_DEFINED_HEIGHT_END
  0
MTEXT
  5
15F
330
1F
100
AcDbEntity
  8
TITLE_BLOCK
100
AcDbMText
 10
6.045
 20
1.07
 30
0.0
 40
0.072
 41
0.6000000000000005
 71
     5
 72
     1
  1
 
  7
ONSHAPE-STANDARD-FIELDS
1001
ACAD
1000
ACAD_MTEXT_DEFINED_HEIGHT_BEGIN
1070
    46
1040
0.1800000000000002
1000
ACAD_MTEXT_DEFINED_HEIGHT_END
  0
MTEXT
  5
160
330
1F
100
AcDbEntity
  8
TITLE_BLOCK
100
AcDbMText
 10
6.719999999999999
 20
1.07
 30
0.0
 40
0.04032
 41
0.7499999999999991
 71
     5
 72
     1
  1
 
  7
ONSHAPE-STANDARD-FIELDS
1001
ACAD
1000
ACAD_MTEXT_DEFINED_HEIGHT_BEGIN
1070
    46
1040
0.1800000000000002
1000
ACAD_MTEXT_DEFINED_HEIGHT_END
  0
MTEXT
  5
161
330
1F
100
AcDbEntity
  8
TITLE_BLOCK
100
AcDbMText
 10
7.319999999999999
 20
1.07
 30
0.0
 40
0.04032
 41
0.4500000000000011
 71
     5
 72
     1
  1
 
  7
ONSHAPE-STANDARD-FIELDS
1001
ACAD
1000
ACAD_MTEXT_DEFINED_HEIGHT_BEGIN
1070
    46
1040
0.1800000000000002
1000
ACAD_MTEXT_DEFINED_HEIGHT_END
  0
MTEXT
  5
162
330
1F
100
AcDbEntity
  8
TITLE_BLOCK
100
AcDbMText
 10
6.045
 20
0.89
 30
0.0
 40
0.072
 41
0.6000000000000005
 71
     5
 72
     1
  1
 
  7
ONSHAPE-STANDARD-FIELDS
1001
ACAD
1000
ACAD_MTEXT_DEFINED_HEIGHT_BEGIN
1070
    46
1040
0.1799999999999999
1000
ACAD_MTEXT_DEFINED_HEIGHT_END
  0
MTEXT
  5
163
330
1F
100
AcDbEntity
  8
TITLE_BLOCK
100
AcDbMText
 10
6.719999999999999
 20
0.89
 30
0.0
 40
0.04032
 41
0.7499999999999991
 71
     5
 72
     1
  1
 
  7
ONSHAPE-STANDARD-FIELDS
1001
ACAD
1000
ACAD_MTEXT_DEFINED_HEIGHT_BEGIN
1070
    46
1040
0.1799999999999999
1000
ACAD_MTEXT_DEFINED_HEIGHT_END
  0
MTEXT
  5
164
330
1F
100
AcDbEntity
  8
TITLE_BLOCK
100
AcDbMText
 10
7.319999999999999
 20
0.89
 30
0.0
 40
0.04032
 41
0.4500000000000011
 71
     5
 72
     1
  1
 
  7
ONSHAPE-STANDARD-FIELDS
1001
ACAD
1000
ACAD_MTEXT_DEFINED_HEIGHT_BEGIN
1070
    46
1040
0.1799999999999999
1000
ACAD_MTEXT_DEFINED_HEIGHT_END
  0
MTEXT
  5
165
330
1F
100
AcDbEntity
  8
TITLE_BLOCK
100
AcDbMText
 10
5.771399999999999
 20
0.7568
 30
0.0
 40
0.048
 41
0.8820000000000003
 71
     1
 72
     1
  1
MATERIAL
  7
ONSHAPE-STANDARD
  0
MTEXT
  5
166
330
1F
100
AcDbEntity
  8
TITLE_BLOCK
100
AcDbMText
 10
6.194999999999999
 20
0.5900000000000001
 30
0.0
 40
0.072
 41
0.9000000000000004
 71
     5
 72
     1
  1
 
  7
ONSHAPE-STANDARD-FIELDS
1001
ACAD
1000
ACAD_MTEXT_DEFINED_HEIGHT_BEGIN
1070
    46
1040
0.42
1000
ACAD_MTEXT_DEFINED_HEIGHT_END
  0
MTEXT
  5
167
330
1F
100
AcDbEntity
  8
TITLE_BLOCK
100
AcDbMText
 10
6.671399999999999
 20
0.7568
 30
0.0
 40
0.048
 41
0.8820000000000003
 71
     1
 72
     1
  1
FINISH
  7
ONSHAPE-STANDARD
  0
MTEXT
  5
168
330
1F
100
AcDbEntity
  8
TITLE_BLOCK
100
AcDbMText
 10
7.095
 20
0.5900000000000001
 30
0.0
 40
0.072
 41
0.9000000000000004
 71
     5
 72
     1
  1
 
  7
ONSHAPE-STANDARD-FIELDS
1001
ACAD
1000
ACAD_MTEXT_DEFINED_HEIGHT_BEGIN
1070
    46
1040
0.42
1000
ACAD_MTEXT_DEFINED_HEIGHT_END
  0
LINE
  5
169
330
1F
100
AcDbEntity
  8
TITLE_BLOCK
100
AcDbLine
 10
7.545
 20
0.38
 30
0.0
 11
7.545
 21
1.88
 31
0.0
  0
LINE
  5
16A
330
1F
100
AcDbEntity
  8
TITLE_BLOCK
100
AcDbLine
 10
7.92
 20
0.575
 30
0.0
 11
7.92
 21
0.875
 31
0.0
  0
LINE
  5
16B
330
1F
100
AcDbEntity
  8
TITLE_BLOCK
100
AcDbLine
 10
8.204999999999998
 20
0.38
 30
0.0
 11
8.204999999999998
 21
0.575
 31
0.0
  0
LINE
  5
16C
330
1F
100
AcDbEntity
  8
TITLE_BLOCK
100
AcDbLine
 10
9.569999999999999
 20
0.38
 30
0.0
 11
9.569999999999999
 21
0.575
 31
0.0
  0
LINE
  5
16D
330
1F
100
AcDbEntity
  8
TITLE_BLOCK
100
AcDbLine
 10
10.32
 20
0.575
 30
0.0
 11
10.32
 21
0.875
 31
0.0
  0
LINE
  5
16E
330
1F
100
AcDbEntity
  8
TITLE_BLOCK
100
AcDbLine
 10
7.545
 20
0.575
 30
0.0
 11
10.62
 21
0.575
 31
0.0
  0
LINE
  5
16F
330
1F
100
AcDbEntity
  8
TITLE_BLOCK
100
AcDbLine
 10
7.545
 20
0.875
 30
0.0
 11
10.62
 21
0.875
 31
0.0
  0
LINE
  5
170
330
1F
100
AcDbEntity
  8
TITLE_BLOCK
100
AcDbLine
 10
7.545
 20
1.505
 30
0.0
 11
10.62
 21
1.505
 31
0.0
  0
LINE
  5
171
330
1F
100
AcDbEntity
  8
TITLE_BLOCK
100
AcDbLine
 10
7.545
 20
1.88
 30
0.0
 11
10.62
 21
1.88
 31
0.0
  0
MTEXT
  5
172
330
1F
100
AcDbEntity
  8
TITLE_BLOCK
100
AcDbMText
 10
7.5714
 20
1.4618
 30
0.0
 40
0.048
 41
0.3675
 71
     1
 72
     1
  1
TITLE
  7
ONSHAPE-STANDARD
  0
MTEXT
  5
173
102
{ACAD_XDICTIONARY
360
174
102
}
330
1F
100
AcDbEntity
  8
TITLE_BLOCK
100
AcDbMText
 10
9.0825
 20
1.385
 30
0.0
 40
0.1152
 41
2.774999999999999
 71
     5
 72
     1
  1
----
  7
ONSHAPE-STANDARD-FIELDS
1001
ACAD
1000
ACAD_MTEXT_DEFINED_HEIGHT_BEGIN
1070
    46
1040
0.189
1000
ACAD_MTEXT_DEFINED_HEIGHT_END
  0
MTEXT
  5
179
102
{ACAD_XDICTIONARY
360
17A
102
}
330
1F
100
AcDbEntity
  8
TITLE_BLOCK
100
AcDbMText
 10
9.0825
 20
1.196
 30
0.0
 40
0.1152
 41
2.774999999999999
 71
     5
 72
     1
  1
----
  7
ONSHAPE-STANDARD-FIELDS
1001
ACAD
1000
ACAD_MTEXT_DEFINED_HEIGHT_BEGIN
1070
    46
1040
0.189
1000
ACAD_MTEXT_DEFINED_HEIGHT_END
  0
MTEXT
  5
17F
102
{ACAD_XDICTIONARY
360
180
102
}
330
1F
100
AcDbEntity
  8
TITLE_BLOCK
100
AcDbMText
 10
9.0825
 20
1.007
 30
0.0
 40
0.1152
 41
2.774999999999999
 71
     5
 72
     1
  1
----
  7
ONSHAPE-STANDARD-FIELDS
1001
ACAD
1000
ACAD_MTEXT_DEFINED_HEIGHT_BEGIN
1070
    46
1040
0.189
1000
ACAD_MTEXT_DEFINED_HEIGHT_END
  0
MTEXT
  5
185
330
1F
100
AcDbEntity
  8
TITLE_BLOCK
100
AcDbMText
 10
7.56612
 20
0.84044
 30
0.0
 40
0.0384
 41
0.3675
 71
     1
 72
     1
  1
SIZE
  7
ONSHAPE-STANDARD
  0
MTEXT
  5
186
102
{ACAD_XDICTIONARY
360
187
102
}
330
1F
100
AcDbEntity
  8
TITLE_BLOCK
100
AcDbMText
 10
7.7325
 20
0.725
 30
0.0
 40
0.144
 41
0.375
 71
     5
 72
     1
  1
A
  7
ONSHAPE-STANDARD-FIELDS
1001
ACAD
1000
ACAD_MTEXT_DEFINED_HEIGHT_BEGIN
1070
    46
1040
0.3
1000
ACAD_MTEXT_DEFINED_HEIGHT_END
  0
MTEXT
  5
18C
330
1F
100
AcDbEntity
  8
TITLE_BLOCK
100
AcDbMText
 10
7.94112
 20
0.84044
 30
0.0
 40
0.0384
 41
2.351999999999999
 71
     1
 72
     1
  1
DWG NO.
  7
ONSHAPE-STANDARD
  0
MTEXT
  5
18D
102
{ACAD_XDICTIONARY
360
18E
102
}
330
1F
100
AcDbEntity
  8
TITLE_BLOCK
100
AcDbMText
 10
9.12
 20
0.725
 30
0.0
 40
0.144
 41
2.399999999999999
 71
     5
 72
     1
  1
----
  7
ONSHAPE-STANDARD-FIELDS
1001
ACAD
1000
ACAD_MTEXT_DEFINED_HEIGHT_BEGIN
1070
    46
1040
0.3
1000
ACAD_MTEXT_DEFINED_HEIGHT_END
  0
MTEXT
  5
193
330
1F
100
AcDbEntity
  8
TITLE_BLOCK
100
AcDbMText
 10
10.34112
 20
0.84044
 30
0.0
 40
0.0384
 41
0.2940000000000007
 71
     1
 72
     1
  1
REV.
  7
ONSHAPE-STANDARD
  0
MTEXT
  5
194
102
{ACAD_XDICTIONARY
360
195
102
}
330
1F
100
AcDbEntity
  8
TITLE_BLOCK
100
AcDbMText
 10
10.485
 20
0.725
 30
0.0
 40
0.144
 41
0.2700000000000014
 71
     5
 72
     1
  1
-
  7
ONSHAPE-STANDARD-FIELDS
1001
ACAD
1000
ACAD_MTEXT_DEFINED_HEIGHT_BEGIN
1070
    46
1040
0.3
1000
ACAD_MTEXT_DEFINED_HEIGHT_END
  0
MTEXT
  5
19A
330
1F
100
AcDbEntity
  8
TITLE_BLOCK
100
AcDbMText
 10
7.56612
 20
0.5404399999999999
 30
0.0
 40
0.0384
 41
0.6467999999999984
 71
     1
 72
     1
  1
SCALE
  7
ONSHAPE-STANDARD
  0
MTEXT
  5
19B
102
{ACAD_XDICTIONARY
360
19C
102
}
330
1F
100
AcDbEntity
  8
TITLE_BLOCK
100
AcDbMText
 10
7.904999999999999
 20
0.4775
 30
0.0
 40
0.0864
 41
0.5999999999999988
 71
     5
 72
     1
  1
1:1
  7
ONSHAPE-STANDARD-FIELDS
1001
ACAD
1000
ACAD_MTEXT_DEFINED_HEIGHT_BEGIN
1070
    46
1040
0.195
1000
ACAD_MTEXT_DEFINED_HEIGHT_END
  0
MTEXT
  5
1A1
330
1F
100
AcDbEntity
  8
TITLE_BLOCK
100
AcDbMText
 10
8.226119999999998
 20
0.5404399999999999
 30
0.0
 40
0.0384
 41
1.3377
 71
     1
 72
     1
  1
WEIGHT
  7
ONSHAPE-STANDARD
  0
MTEXT
  5
1A2
330
1F
100
AcDbEntity
  8
TITLE_BLOCK
100
AcDbMText
 10
8.8875
 20
0.4775
 30
0.0
 40
0.0864
 41
1.365
 71
     5
 72
     1
  1
 
  7
ONSHAPE-STANDARD-FIELDS
1001
ACAD
1000
ACAD_MTEXT_DEFINED_HEIGHT_BEGIN
1070
    46
1040
0.195
1000
ACAD_MTEXT_DEFINED_HEIGHT_END
  0
MTEXT
  5
1A3
330
1F
100
AcDbEntity
  8
TITLE_BLOCK
100
AcDbMText
 10
9.591119999999998
 20
0.5404399999999999
 30
0.0
 40
0.0384
 41
1.029000000000001
 71
     1
 72
     1
  1
SHEET
  7
ONSHAPE-STANDARD
  0
MTEXT
  5
1A4
102
{ACAD_XDICTIONARY
360
1A5
102
}
330
1F
100
AcDbEntity
  8
TITLE_BLOCK
100
AcDbMText
 10
10.125
 20
0.4775
 30
0.0
 40
0.0864
 41
0.9900000000000002
 71
     5
 72
     1
  1
1 of 1
  7
ONSHAPE-STANDARD-FIELDS
1001
ACAD
1000
ACAD_MTEXT_DEFINED_HEIGHT_BEGIN
1070
    46
1040
0.195
1000
ACAD_MTEXT_DEFINED_HEIGHT_END
  0
MTEXT
  5
1AA
102
{ACAD_XDICTIONARY
360
1AB
102
}
330
1F
100
AcDbEntity
  8
ANNOTATION_TEXT
 62
     7
 60
     1
100
AcDbMText
 10
5.44509385461269
 20
3.185066117917139
 30
0.0
 40
0.12
 41
0.0
 71
     2
 72
     1
  1

  7
ONSHAPE-STANDARD-VIEW-LABE
1001
ACAD
1000
ACAD_MTEXT_DEFINED_HEIGHT_BEGIN
1070
    46
1040
0.12
1000
ACAD_MTEXT_DEFINED_HEIGHT_END
  0
DIMENSION
  5
1B0
102
{ACAD_REACTORS
102
}
102
{ACAD_XDICTIONARY
360
1B1
102
}
330
1F
100
AcDbEntity
  8
ANNOTATION_TEXT
100
AcDbDimension
  2
*D1
 10
2.445250969198337
 20
5.336601835988407
 30
0.0
 11
3.383003078683951
 21
7.210473666633204
 31
0.0
 70
   163
  1
M2x6mm Tapped\P<>
  3
ONSHAPE-STANDARD$3
100
AcDbDiametricDimension
 15
2.444936740027044
 25
5.423215439215949
 35
0.0
 40
0.0
1001
ACAD
1000
DSTYLE
1002
{
1070
   270
1070
     2
1070
    47
1040
0.0
1070
    48
1040
0.0
1070
   272
1070
     3
1070
   271
1070
     3
1070
   274
1070
     2
1070
   171
1070
     2
1070
   286
1070
     0
1070
   285
1070
     7
1070
   143
1040
0.0393700787401575
1070
   273
1070
     2
1070
   284
1070
     7
1070
    78
1070
     7
1070
   277
1070
     2
1070
     4
1000
[] in
1070
   144
1040
25.4
1070
     3
1000
%%c<> mm 
1070
   288
1070
     1
1002
}
1001
ACAD_DSTYLE_DIMRADIAL_EXTE
1070
   387
1070
     1
1070
   388
1040
0.0
1070
   390
1040
6.283185307179586
1001
ACAD_DIMASSOC_CALC_DIMLFAC
1040
-1.0
1001
ACAD_DIMASSOC_DIMLFAC
1040
-1.0
1001
ACAD_DIMASSOC_OVERRIDDEN_D
1040
0.0
  0
DIMENSION
  5
1C5
102
{ACAD_REACTORS
102
}
102
{ACAD_XDICTIONARY
360
1C6
102
}
330
1F
100
AcDbEntity
  8
ANNOTATION_TEXT
100
AcDbDimension
  2
*D2
 10
8.445700367360372
 20
5.336605798280785
 30
0.0
 11
9.364004812363765
 21
7.210473666633202
 31
0.0
 70
   163
  1
M2x6mm Tapped\P<>
  3
ONSHAPE-STANDARD$3
100
AcDbDiametricDimension
 15
8.444487341865008
 25
5.423211476923572
 35
0.0
 40
0.0
1001
ACAD
1000
DSTYLE
1002
{
1070
   270
1070
     2
1070
    47
1040
0.0
1070
    48
1040
0.0
1070
   272
1070
     3
1070
   271
1070
     3
1070
   274
1070
     2
1070
   171
1070
     2
1070
   286
1070
     0
1070
   285
1070
     7
1070
   143
1040
0.0393700787401575
1070
   273
1070
     2
1070
   284
1070
     7
1070
    78
1070
     7
1070
   277
1070
     2
1070
     4
1000
[] in
1070
   144
1040
25.4
1070
     3
1000
%%c<> mm 
1070
   288
1070
     1
1002
}
1001
ACAD_DSTYLE_DIMRADIAL_EXTE
1070
   387
1070
     1
1070
   388
1040
0.0
1070
   390
1040
6.283185307179586
1001
ACAD_DIMASSOC_CALC_DIMLFAC
1040
-1.0
1001
ACAD_DIMASSOC_DIMLFAC
1040
-1.0
1001
ACAD_DIMASSOC_OVERRIDDEN_D
1040
0.0
  0
DIMENSION
  5
1D4
102
{ACAD_REACTORS
102
}
102
{ACAD_XDICTIONARY
360
1D5
102
}
330
1F
100
AcDbEntity
  8
ANNOTATION_TEXT
100
AcDbDimension
  2
*D3
 10
5.445012280026111
 20
5.336601627816298
 30
0.0
 11
6.393092379149447
 21
7.210473666633205
 31
0.0
 70
   163
  1
M2x6mm Tapped\P<>
  3
ONSHAPE-STANDARD$3
100
AcDbDiametricDimension
 15
5.445175429199267
 25
5.423215647388059
 35
0.0
 40
0.0
1001
ACAD
1000
DSTYLE
1002
{
1070
   270
1070
     2
1070
    47
1040
0.0
1070
    48
1040
0.0
1070
   272
1070
     3
1070
   271
1070
     3
1070
   274
1070
     2
1070
   171
1070
     2
1070
   286
1070
     0
1070
   285
1070
     7
1070
   143
1040
0.0393700787401575
1070
   273
1070
     2
1070
   284
1070
     7
1070
    78
1070
     7
1070
   277
1070
     2
1070
     4
1000
[] in
1070
   144
1040
25.4
1070
     3
1000
%%c<> mm 
1070
   288
1070
     1
1002
}
1001
ACAD_DSTYLE_DIMRADIAL_EXTE
1070
   387
1070
     1
1070
   388
1040
0.0
1070
   390
1040
6.283185307179586
1001
ACAD_DIMASSOC_CALC_DIMLFAC
1040
-1.0
1001
ACAD_DIMASSOC_DIMLFAC
1040
-1.0
1001
ACAD_DIMASSOC_OVERRIDDEN_D
1040
0.0
  0
ENDSEC
  0
SECTION
  2
OBJECTS
  0
DICTIONARY
  5
C
330
0
100
AcDbDictionary
  3
ACAD_FIELDLIST
350
1E3
  3
ACAD_GROUP
350
D
  3
ACAD_LAYOUT
350
1A
  3
ACAD_MATERIAL
350
43
  3
ACAD_MLEADERSTYLE
350
6B
  3
ACAD_MLINESTYLE
350
17
  3
ACAD_PLOTSETTINGS
350
19
  3
ACAD_SCALELIST
350
47
  3
ACAD_VISUALSTYLE
350
2A
  3
ACDBHEADERROUNDTRIPXREC
350
225
  3
ACDBVARIABLEDICTIONARY
350
6E
  3
ONSHAPE_DATA
350
1E4
  0
DICTIONARY
  5
24C
330
8
100
AcDbDictionary
280
     1
  3
ACAD_XREC_ROUNDTRIP
360
24D
  0
DICTIONARY
  5
143
330
142
100
AcDbDictionary
280
     1
  0
DICTIONARY
  5
14A
330
149
100
AcDbDictionary
280
     1
  0
DICTIONARY
  5
154
330
153
100
AcDbDictionary
280
     1
  0
DICTIONARY
  5
15A
330
159
100
AcDbDictionary
280
     1
  0
DICTIONARY
  5
174
330
173
100
AcDbDictionary
280
     1
  0
DICTIONARY
  5
17A
330
179
100
AcDbDictionary
280
     1
  0
DICTIONARY
  5
180
330
17F
100
AcDbDictionary
280
     1
  0
DICTIONARY
  5
187
330
186
100
AcDbDictionary
280
     1
  0
DICTIONARY
  5
18E
330
18D
100
AcDbDictionary
280
     1
  0
DICTIONARY
  5
195
330
194
100
AcDbDictionary
280
     1
  0
DICTIONARY
  5
19C
330
19B
100
AcDbDictionary
280
     1
  0
DICTIONARY
  5
1A5
330
1A4
100
AcDbDictionary
280
     1
  0
DICTIONARY
  5
1AB
330
1AA
100
AcDbDictionary
280
     1
  3
ONSHAPE_VIEW_ID
360
1AC
  0
DICTIONARY
  5
1B1
330
1B0
100
AcDbDictionary
280
     1
  3
OS_ALT_DIM_OVERRIDDEN_DIML
360
1B5
  3
OS_DIM_DISPLAY_FLAG_DATA
360
1B3
  3
OS_DIM_OVERRIDDEN_DIMLFAC_DATA
360
1B4
  0
DICTIONARY
  5
1C6
330
1C5
100
AcDbDictionary
280
     1
  3
OS_ALT_DIM_OVERRIDDEN_DIML
360
1CA
  3
OS_DIM_DISPLAY_FLAG_DATA
360
1C8
  3
OS_DIM_OVERRIDDEN_DIMLFAC_DATA
360
1C9
  0
DICTIONARY
  5
1D5
330
1D4
100
AcDbDictionary
280
     1
  3
OS_ALT_DIM_OVERRIDDEN_DIML
360
1D9
  3
OS_DIM_DISPLAY_FLAG_DATA
360
1D7
  3
OS_DIM_OVERRIDDEN_DIMLFAC_DATA
360
1D8
  0
ACAD_PROXY_OBJECT
  5
1E3
102
{ACAD_REACTORS
330
C
102
}
330
C
100
AcDbProxyObject
 90
      499
 91
      510
 93
       11
310
4600
330
146
330
147
330
14D
330
14E
330
157
330
158
330
15D
330
15E
330
177
330
178
330
17D
330
17E
330
183
330
184
330
18A
330
18B
330
191
330
192
330
198
330
199
330
19F
330
1A0
330
1A8
330
1A9
 94
        0
  0
DICTIONARY
  5
D
102
{ACAD_REACTORS
330
C
102
}
330
C
100
AcDbDictionary
  0
DICTIONARY
  5
1A
102
{ACAD_REACTORS
330
C
102
}
330
C
100
AcDbDictionary
  0
DICTIONARY
  5
43
102
{ACAD_REACTORS
330
C
102
}
330
C
100
AcDbDictionary
  3
BYBLOCK
350
45
  3
BYLAYER
350
44
  3
GLOBAL
350
46
  0
DICTIONARY
  5
6B
102
{ACAD_REACTORS
330
C
102
}
330
C
100
AcDbDictionary
  3
STANDARD
350
6C
  0
DICTIONARY
  5
17
102
{ACAD_REACTORS
330
C
102
}
330
C
100
AcDbDictionary
  3
STANDARD
350
18
  0
DICTIONARY
  5
19
102
{ACAD_REACTORS
330
C
102
}
330
C
100
AcDbDictionary
  0
DICTIONARY
  5
47
102
{ACAD_REACTORS
330
C
102
}
330
C
100
AcDbDictionary
  3
A0
350
48
  3
A1
350
49
  3
A2
350
4A
  3
A3
350
4B
  3
A4
350
4C
  3
A5
350
4D
  3
A6
350
4E
  3
A7
350
4F
  3
A8
350
50
  3
A9
350
51
  3
B0
350
52
  3
B1
350
53
  3
B2
350
54
  3
B3
350
55
  3
B4
350
56
  3
B5
350
57
  3
B6
350
58
  3
B7
350
59
  3
B8
350
5A
  3
B9
350
5B
  3
C0
350
5C
  3
C1
350
5D
  3
C2
350
5E
  3
C3
350
5F
  3
C4
350
60
  3
C5
350
61
  3
C6
350
62
  3
C7
350
63
  3
C8
350
64
  3
C9
350
65
  3
D0
350
66
  3
D1
350
67
  3
D2
350
68
  0
DICTIONARY
  5
2A
102
{ACAD_REACTORS
330
C
102
}
330
C
100
AcDbDictionary
  3
2DWIREFRAME
350
2F
  3
BASIC
350
32
  3
BRIGHTEN
350
36
  3
COLORCHANGE
350
3A
  3
CONCEPTUAL
350
34
  3
DIM
350
35
  3
EDGECOLOROFF
350
3D
  3
FACEPATTERN
350
39
  3
FLAT
350
2B
  3
FLATWITHEDGES
350
2C
  3
GOURAUD
350
2D
  3
GOURAUDWITHEDGES
350
2E
  3
HIDDEN
350
31
  3
JITTEROFF
350
3B
  3
LINEPATTERN
350
38
  3
OVERHANGOFF
350
3C
  3
REALISTIC
350
33
  3
SHADED
350
42
  3
SHADED_WITH_EDGES
350
41
  3
SHADES_OF_GRAY
350
3E
  3
SKETCHY
350
3F
  3
THICKEN
350
37
  3
WIREFRAME
350
30
  3
X-RAY
350
40
  0
DICTIONARY
  5
225
102
{ACAD_REACTORS
330
C
102
}
330
C
100
AcDbDictionary
  3
CEPSNID
350
22F
  3
CEPSNTYPE
350
22E
  3
DIMSTYLEDATA
350
245
  3
FINGERPRINTGUID
350
230
  3
HYPERLINKBASE
350
228
  3
INSUNITS
350
22D
  3
LAYOUTDICT
350
22A
  3
LWETCUNION
350
22C
  3
PLOTSETDICT
350
22B
  3
PSVPSCALE
350
232
  3
PUCSBASE
350
235
  3
PUCSORGBACK
350
23B
  3
PUCSORGBOTTOM
350
237
  3
PUCSORGFRONT
350
23A
  3
PUCSORGLEFT
350
238
  3
PUCSORGRIGHT
350
239
  3
PUCSORGTOP
350
236
  3
PUCSORTHOREF
350
233
  3
PUCSORTHOVIEW
350
234
  3
STYLESHEET
350
229
  3
TSTACKALIGN
350
226
  3
TSTACKSIZE
350
227
  3
UCSBASE
350
23E
  3
UCSORGBACK
350
244
  3
UCSORGBOTTOM
350
240
  3
UCSORGFRONT
350
243
  3
UCSORGLEFT
350
241
  3
UCSORGRIGHT
350
242
  3
UCSORGTOP
350
23F
  3
UCSORTHOREF
350
23C
  3
UCSORTHOVIEW
350
23D
  3
VERSIONGUID
350
231
  0
DICTIONARY
  5
6E
102
{ACAD_REACTORS
330
C
102
}
330
C
100
AcDbDictionary
  3
CANNOSCALE
350
24E
  3
CMLEADERSTYLE
350
247
  3
CTABLESTYLE
350
246
  3
DIMASSOC
350
24A
  3
HIDETEXT
350
24B
  3
MSLTSCALE
350
24F
  3
OLEFRAME
350
6F
  0
DICTIONARY
  5
1E4
102
{ACAD_REACTORS
330
C
102
}
330
C
100
AcDbDictionary
280
     1
  3
DIM_UNITS
360
1E5
  3
ONSHAPE_ANG_TOL_PRECISION
360
1E8
  3
ONSHAPE_VSHARP_EXTENSION
360
1E7
  3
ONSHAPE_WELD_STANDARD
360
1E6
  0
XRECORD
  5
24D
102
{ACAD_REACTORS
330
24C
102
}
330
24C
100
AcDbXrecord
102
VTR_0.000_0.000_1.000_1.000_VISUALSTYLE
340
2F
102
VTR_0.000_0.000_1.000_1.000_GRIDDISPLAY
 70
     3
102
VTR_0.000_0.000_1.000_1.000_GRIDMAJOR
 70
     5
102
VTR_0.000_0.000_1.000_1.000_DEFAULTLIGHTING
280
     1
102
VTR_0.000_0.000_1.000_1.000_DEFAULTLIGHTINGTYPE
 70
     1
102
VTR_0.000_0.000_1.000_1.000_BRIGHTNESS
141
0.0
102
VTR_0.000_0.000_1.000_1.000_CONTRAST
142
0.0
  0
XRECORD
  5
1AC
102
{ACAD_REACTORS
330
1AB
102
}
330
1AB
100
AcDbXrecord
330
0
  0
XRECORD
  5
1B5
102
{ACAD_REACTORS
330
1B1
102
}
330
1B1
100
AcDbXrecord
 90
        1
 40
0.0393700787401575
  0
XRECORD
  5
1B3
102
{ACAD_REACTORS
330
1B1
102
}
330
1B1
100
AcDbXrecord
 90
        1
 90
        3
  0
XRECORD
  5
1B4
102
{ACAD_REACTORS
330
1B1
102
}
330
1B1
100
AcDbXrecord
 90
        1
 40
25.4
  0
XRECORD
  5
1CA
102
{ACAD_REACTORS
330
1C6
102
}
330
1C6
100
AcDbXrecord
 90
        1
 40
0.0393700787401575
  0
XRECORD
  5
1C8
102
{ACAD_REACTORS
330
1C6
102
}
330
1C6
100
AcDbXrecord
 90
        1
 90
        3
  0
XRECORD
  5
1C9
102
{ACAD_REACTORS
330
1C6
102
}
330
1C6
100
AcDbXrecord
 90
        1
 40
25.4
  0
XRECORD
  5
1D9
102
{ACAD_REACTORS
330
1D5
102
}
330
1D5
100
AcDbXrecord
 90
        1
 40
0.0393700787401575
  0
XRECORD
  5
1D7
102
{ACAD_REACTORS
330
1D5
102
}
330
1D5
100
AcDbXrecord
 90
        1
 90
        3
  0
XRECORD
  5
1D8
102
{ACAD_REACTORS
330
1D5
102
}
330
1D5
100
AcDbXrecord
 90
        1
 40
25.4
  0
MATERIAL
  5
45
102
{ACAD_REACTORS
330
43
102
}
102
{ACAD_XDICTIONARY
360
252
102
}
330
43
100
AcDbMaterial
  1
BYBLOCK
  0
MATERIAL
  5
44
102
{ACAD_REACTORS
330
43
102
}
102
{ACAD_XDICTIONARY
360
250
102
}
330
43
100
AcDbMaterial
  1
BYLAYER
  0
MATERIAL
  5
46
102
{ACAD_REACTORS
330
43
102
}
102
{ACAD_XDICTIONARY
360
254
102
}
330
43
100
AcDbMaterial
  1
GLOBAL
  0
ACAD_PROXY_OBJECT
  5
6C
102
{ACAD_REACTORS
330
6B
102
}
330
6B
100
AcDbProxyObject
 90
      499
 91
      505
 93
      610
310
40901902A4063FBFFFFFE056BD1B81E855B9FC0AD7A3703D0AD73F4214DD185B99185C9900AD7A3703D0AC73F90140501A02B5E8DC0F42B1CFC02B5E8DC0F42B1CFE5764000000000000300FC0
340
14
340
0
340
11
340
0
 94
        0
1001
ACAD_MLEADERVER
1070
     2
  0
MLINESTYLE
  5
18
102
{ACAD_REACTORS
330
17
102
}
330
17
100
AcDbMlineStyle
  2
Standard
 70
     0
  3

 62
   256
 51
90.0
 52
90.0
 71
     2
 49
0.5
 62
   256
  6
BYLAYER
 49
-0.5
 62
   256
  6
BYLAYER
  0
ACAD_PROXY_OBJECT
  5
48
102
{ACAD_REACTORS
330
47
102
}
330
47
100
AcDbProxyObject
 90
      499
 91
      503
 93
       41
310
903313A31580
  0
ACAD_PROXY_OBJECT
  5
49
102
{ACAD_REACTORS
330
47
102
}
330
47
100
AcDbProxyObject
 90
      499
 91
      503
 93
      105
310
903313A324000000000000004000
  0
ACAD_PROXY_OBJECT
  5
4A
102
{ACAD_REACTORS
330
47
102
}
330
47
100
AcDbProxyObject
 90
      499
 91
      503
 93
      105
310
903313A344000000000000104000
  0
ACAD_PROXY_OBJECT
  5
4B
102
{ACAD_REACTORS
330
47
102
}
330
47
100
AcDbProxyObject
 90
      499
 91
      503
 93
      105
310
903313A354000000000000144000
  0
ACAD_PROXY_OBJECT
  5
4C
102
{ACAD_REACTORS
330
47
102
}
330
47
100
AcDbProxyObject
 90
      499
 91
      503
 93
      105
310
903313A384000000000000204000
  0
ACAD_PROXY_OBJECT
  5
4D
102
{ACAD_REACTORS
330
47
102
}
330
47
100
AcDbProxyObject
 90
      499
 91
      503
 93
      113
310
904313A31304000000000000244000
  0
ACAD_PROXY_OBJECT
  5
4E
102
{ACAD_REACTORS
330
47
102
}
330
47
100
AcDbProxyObject
 90
      499
 91
      503
 93
      113
310
904313A31364000000000000304000
  0
ACAD_PROXY_OBJECT
  5
4F
102
{ACAD_REACTORS
330
47
102
}
330
47
100
AcDbProxyObject
 90
      499
 91
      503
 93
      113
310
904313A32304000000000000344000
  0
ACAD_PROXY_OBJECT
  5
50
102
{ACAD_REACTORS
330
47
102
}
330
47
100
AcDbProxyObject
 90
      499
 91
      503
 93
      113
310
904313A333040000000000003E4000
  0
ACAD_PROXY_OBJECT
  5
51
102
{ACAD_REACTORS
330
47
102
}
330
47
100
AcDbProxyObject
 90
      499
 91
      503
 93
      113
310
904313A34304000000000000444000
  0
ACAD_PROXY_OBJECT
  5
52
102
{ACAD_REACTORS
330
47
102
}
330
47
100
AcDbProxyObject
 90
      499
 91
      503
 93
      113
310
904313A35304000000000000494000
  0
ACAD_PROXY_OBJECT
  5
53
102
{ACAD_REACTORS
330
47
102
}
330
47
100
AcDbProxyObject
 90
      499
 91
      503
 93
      121
310
905313A3130304000000000000594000
  0
ACAD_PROXY_OBJECT
  5
54
102
{ACAD_REACTORS
330
47
102
}
330
47
100
AcDbProxyObject
 90
      499
 91
      503
 93
      105
310
903323A310000000000000010100
  0
ACAD_PROXY_OBJECT
  5
55
102
{ACAD_REACTORS
330
47
102
}
330
47
100
AcDbProxyObject
 90
      499
 91
      503
 93
      105
310
903343A310000000000000410100
  0
ACAD_PROXY_OBJECT
  5
56
102
{ACAD_REACTORS
330
47
102
}
330
47
100
AcDbProxyObject
 90
      499
 91
      503
 93
      105
310
903383A310000000000000810100
  0
ACAD_PROXY_OBJECT
  5
57
102
{ACAD_REACTORS
330
47
102
}
330
47
100
AcDbProxyObject
 90
      499
 91
      503
 93
      113
310
90431303A310000000000000910100
  0
ACAD_PROXY_OBJECT
  5
58
102
{ACAD_REACTORS
330
47
102
}
330
47
100
AcDbProxyObject
 90
      499
 91
      503
 93
      121
310
9053130303A310000000000001650100
  0
ACAD_PROXY_OBJECT
  5
59
102
{ACAD_REACTORS
330
47
102
}
330
47
100
AcDbProxyObject
 90
      499
 91
      503
 93
      257
310
90E312F31323822203D2031272D3022000000000000200FC000000000000284000
  0
ACAD_PROXY_OBJECT
  5
5A
102
{ACAD_REACTORS
330
47
102
}
330
47
100
AcDbProxyObject
 90
      499
 91
      503
 93
      249
310
90D312F363422203D2031272D3022000000000000240FC000000000000284000
  0
ACAD_PROXY_OBJECT
  5
5B
102
{ACAD_REACTORS
330
47
102
}
330
47
100
AcDbProxyObject
 90
      499
 91
      503
 93
      249
310
90D312F333222203D2031272D3022000000000000280FC000000000000284000
  0
ACAD_PROXY_OBJECT
  5
5C
102
{ACAD_REACTORS
330
47
102
}
330
47
100
AcDbProxyObject
 90
      499
 91
      503
 93
      249
310
90D312F313622203D2031272D30220000000000002C0FC000000000000284000
  0
ACAD_PROXY_OBJECT
  5
5D
102
{ACAD_REACTORS
330
47
102
}
330
47
100
AcDbProxyObject
 90
      499
 91
      503
 93
      249
310
90D332F333222203D2031272D30220000000000002E0FC000000000000284000
  0
ACAD_PROXY_OBJECT
  5
5E
102
{ACAD_REACTORS
330
47
102
}
330
47
100
AcDbProxyObject
 90
      499
 91
      503
 93
      241
310
90C312F3822203D2031272D3022000000000000300FC000000000000284000
  0
ACAD_PROXY_OBJECT
  5
5F
102
{ACAD_REACTORS
330
47
102
}
330
47
100
AcDbProxyObject
 90
      499
 91
      503
 93
      249
310
90D332F313622203D2031272D3022000000000000320FC000000000000284000
  0
ACAD_PROXY_OBJECT
  5
60
102
{ACAD_REACTORS
330
47
102
}
330
47
100
AcDbProxyObject
 90
      499
 91
      503
 93
      241
310
90C312F3422203D2031272D3022000000000000340FC000000000000284000
  0
ACAD_PROXY_OBJECT
  5
61
102
{ACAD_REACTORS
330
47
102
}
330
47
100
AcDbProxyObject
 90
      499
 91
      503
 93
      241
310
90C332F3822203D2031272D3022000000000000360FC000000000000284000
  0
ACAD_PROXY_OBJECT
  5
62
102
{ACAD_REACTORS
330
47
102
}
330
47
100
AcDbProxyObject
 90
      499
 91
      503
 93
      241
310
90C312F3222203D2031272D3022000000000000380FC000000000000284000
  0
ACAD_PROXY_OBJECT
  5
63
102
{ACAD_REACTORS
330
47
102
}
330
47
100
AcDbProxyObject
 90
      499
 91
      503
 93
      241
310
90C332F3422203D2031272D30220000000000003A0FC000000000000284000
  0
ACAD_PROXY_OBJECT
  5
64
102
{ACAD_REACTORS
330
47
102
}
330
47
100
AcDbProxyObject
 90
      499
 91
      503
 93
      161
310
90A3122203D2031272D30224000000000000284000
  0
ACAD_PROXY_OBJECT
  5
65
102
{ACAD_REACTORS
330
47
102
}
330
47
100
AcDbProxyObject
 90
      499
 91
      503
 93
      257
310
90E312D312F3222203D2031272D30220000000000003E0FC000000000000284000
  0
ACAD_PROXY_OBJECT
  5
66
102
{ACAD_REACTORS
330
47
102
}
330
47
100
AcDbProxyObject
 90
      499
 91
      503
 93
      225
310
90A3322203D2031272D302200000000000002100000000000000284000
  0
ACAD_PROXY_OBJECT
  5
67
102
{ACAD_REACTORS
330
47
102
}
330
47
100
AcDbProxyObject
 90
      499
 91
      503
 93
      225
310
90A3622203D2031272D302200000000000006100000000000000284000
  0
ACAD_PROXY_OBJECT
  5
68
102
{ACAD_REACTORS
330
47
102
}
330
47
100
AcDbProxyObject
 90
      499
 91
      503
 93
      249
310
90D31272D3022203D2031272D30220000000000000A100000000000000284000
  0
ACAD_PROXY_OBJECT
  5
2F
102
{ACAD_REACTORS
330
2A
102
}
330
2A
100
AcDbProxyObject
 90
      499
 91
      501
 93
      436
310
42CC9915DA5C99599C985B595049028333333333333E33F0000000000000F90107901411070040501600405405064090741402480A0340
1001
ACAD
1000
AcDbSavedByObjectVersion
1070
     0
  0
ACAD_PROXY_OBJECT
  5
32
102
{ACAD_REACTORS
330
2A
102
}
330
2A
100
AcDbProxyObject
 90
      499
 91
      501
 93
      388
310
4150985CDA58D07406404333333333333E33F0000000000000F90107A41107004050150841D405064090741402480A0350
1001
ACAD
1000
AcDbSavedByObjectVersion
1070
     0
  0
ACAD_PROXY_OBJECT
  5
36
102
{ACAD_REACTORS
330
2A
102
}
330
2A
100
AcDbProxyObject
 90
      499
 91
      501
 93
      428
310
42109C9A59DA1D195B90C409028333333333333E33F0000000000000F9010790141107004050150841D405064090741402480A029950
1001
ACAD
1000
AcDbSavedByObjectVersion
1070
     0
  0
ACAD_PROXY_OBJECT
  5
3A
102
{ACAD_REACTORS
330
2A
102
}
330
2A
100
AcDbProxyObject
 90
      499
 91
      501
 93
      452
310
42D0DBDB1BDC90DA185B99D95104090240C333333333333E33F0000000000000F90108901411070040501508421405064090741402480A0350
1001
ACAD
1000
AcDbSavedByObjectVersion
1070
     0
  0
ACAD_PROXY_OBJECT
  5
34
102
{ACAD_REACTORS
330
2A
102
}
330
2A
100
AcDbProxyObject
 90
      499
 91
      501
 93
      500
310
4290DBDB98D95C1D1D585B10940D028333333333333E33F0000000000000F90107902409070040501000000000018199010841D405064090740C02480A0340
1001
ACAD
1000
AcDbSavedByObjectVersion
1070
     0
  0
ACAD_PROXY_OBJECT
  5
35
102
{ACAD_REACTORS
330
2A
102
}
330
2A
100
AcDbProxyObject
 90
      499
 91
      501
 93
      412
310
40D11A5B50B409028333333333333E33F0000000000000F9010790141107004050150841D405064090741402480A02677FFFFFD0
1001
ACAD
1000
AcDbSavedByObjectVersion
1070
     0
  0
ACAD_PROXY_OBJECT
  5
3D
102
{ACAD_REACTORS
330
2A
102
}
330
2A
100
AcDbProxyObject
 90
      499
 91
      501
 93
      452
310
43115919D950DBDB1BDC93D999916409028333333333333E33F0000000000000F9010790141107004050150841D405064090741402480A0350
1001
ACAD
1000
AcDbSavedByObjectVersion
1070
     0
  0
ACAD_PROXY_OBJECT
  5
39
102
{ACAD_REACTORS
330
2A
102
}
330
2A
100
AcDbProxyObject
 90
      499
 91
      501
 93
      444
310
42D19858D95C185D1D195C9B90F409028333333333333E33F0000000000000F9010790141107004050150841D405064090741402480A0350
1001
ACAD
1000
AcDbSavedByObjectVersion
1070
     0
  0
ACAD_PROXY_OBJECT
  5
2B
102
{ACAD_REACTORS
330
2A
102
}
330
2A
100
AcDbProxyObject
 90
      499
 91
      501
 93
      380
310
41119B185D240901404333333333333E33F0000000000000F9010740A907004050150841D405064090741402480A1B50
1001
ACAD
1000
AcDbSavedByObjectVersion
1070
     0
  0
ACAD_PROXY_OBJECT
  5
2C
102
{ACAD_REACTORS
330
2A
102
}
330
2A
100
AcDbProxyObject
 90
      499
 91
      501
 93
      468
310
43519B185D15DA5D1A115919D95CD0140901404333333333333E33F0000000000000F90107409019070040501600405405064090741402480A1B50
1001
ACAD
1000
AcDbSavedByObjectVersion
1070
     0
  0
ACAD_PROXY_OBJECT
  5
2D
102
{ACAD_REACTORS
330
2A
102
}
330
2A
100
AcDbProxyObject
 90
      499
 91
      501
 93
      404
310
41D1DBDD5C985D5910240902404333333333333E33F0000000000000F9010740A9070040501641D405064090741402480A1B50
1001
ACAD
1000
AcDbSavedByObjectVersion
1070
     0
  0
ACAD_PROXY_OBJECT
  5
2E
102
{ACAD_REACTORS
330
2A
102
}
330
2A
100
AcDbProxyObject
 90
      499
 91
      501
 93
      492
310
4411DBDD5C985D5915DA5D1A115919D95CD0340902404333333333333E33F0000000000000F90107409019070040501600405405064090741402480A1B50
1001
ACAD
1000
AcDbSavedByObjectVersion
1070
     0
  0
ACAD_PROXY_OBJECT
  5
31
102
{ACAD_REACTORS
330
2A
102
}
330
2A
100
AcDbProxyObject
 90
      499
 91
      501
 93
      476
310
41921A5919195B90640502408333333333333E33F0000000000000F901079024090700405020000000000001110200405405064090740C02480A0340
1001
ACAD
1000
AcDbSavedByObjectVersion
1070
     0
  0
ACAD_PROXY_OBJECT
  5
3B
102
{ACAD_REACTORS
330
2A
102
}
330
2A
100
AcDbProxyObject
 90
      499
 91
      501
 93
      428
310
42529A5D1D195C93D999914409028333333333333E33F0000000000000F9010790141107004050150A41D405064090741402480A0350
1001
ACAD
1000
AcDbSavedByObjectVersion
1070
     0
  0
ACAD_PROXY_OBJECT
  5
38
102
{ACAD_REACTORS
330
2A
102
}
330
2A
100
AcDbProxyObject
 90
      499
 91
      501
 93
      444
310
42D31A5B995C185D1D195C9B90E409028333333333333E33F0000000000000F9010790141107004050750841D405064090741402483A0350
1001
ACAD
1000
AcDbSavedByObjectVersion
1070
     0
  0
ACAD_PROXY_OBJECT
  5
3C
102
{ACAD_REACTORS
330
2A
102
}
330
2A
100
AcDbProxyObject
 90
      499
 91
      501
 93
      444
310
42D3DD995C9A185B99D3D999915409028333333333333E33F0000000000000F9010790141107004050150941D405064090741402480A0350
1001
ACAD
1000
AcDbSavedByObjectVersion
1070
     0
  0
ACAD_PROXY_OBJECT
  5
33
102
{ACAD_REACTORS
330
2A
102
}
330
2A
100
AcDbProxyObject
 90
      499
 91
      501
 93
      428
310
425499585B1A5CDD1A58D08409038333333333333E33F0000000000000F9010740A907004050150800405405064090740C02480A1B40
1001
ACAD
1000
AcDbSavedByObjectVersion
1070
     0
  0
ACAD_PROXY_OBJECT
  5
42
102
{ACAD_REACTORS
330
2A
102
}
330
2A
100
AcDbProxyObject
 90
      499
 91
      501
 93
      420
310
4194DA1859195911B40902404333333333333E33F0000000000000F9010740A41107004050150800405405064090840C02480A0B40
1001
ACAD
1000
AcDbSavedByObjectVersion
1070
     0
  0
ACAD_PROXY_OBJECT
  5
41
102
{ACAD_REACTORS
330
2A
102
}
330
2A
100
AcDbProxyObject
 90
      499
 91
      501
 93
      516
310
4454DA18591959081DDA5D1A08195919D95CD1A40902404333333333333E33F0000000000000F901074090142907004050250800405405064090740C02480A0B40
1001
ACAD
1000
AcDbSavedByObjectVersion
1070
     0
  0
ACAD_PROXY_OBJECT
  5
3E
102
{ACAD_REACTORS
330
2A
102
}
330
2A
100
AcDbProxyObject
 90
      499
 91
      501
 93
      532
310
4394DA1859195CC81BD98811DC985E5174090240C333333333333E33F0000000000000F901079024090741D01000000000000111010841D405064090740C02480A0340
1001
ACAD
1000
AcDbSavedByObjectVersion
1070
     0
  0
ACAD_PROXY_OBJECT
  5
3F
102
{ACAD_REACTORS
330
2A
102
}
330
2A
100
AcDbProxyObject
 90
      499
 91
      501
 93
      476
310
41D4DAD95D18DA1E51840502408333333333333E33F0000000000000F901079024090741D01000000000000111010B41D405064090741802480A0340
1001
ACAD
1000
AcDbSavedByObjectVersion
1070
     0
  0
ACAD_PROXY_OBJECT
  5
37
102
{ACAD_REACTORS
330
2A
102
}
330
2A
100
AcDbProxyObject
 90
      499
 91
      501
 93
      412
310
41D51A1A58DAD95B90D409028333333333333E33F0000000000000F9010790141107004050150C41D405064090741402480A0350
1001
ACAD
1000
AcDbSavedByObjectVersion
1070
     0
  0
ACAD_PROXY_OBJECT
  5
30
102
{ACAD_REACTORS
330
2A
102
}
330
2A
100
AcDbProxyObject
 90
      499
 91
      501
 93
      420
310
4255DA5C99599C985B595059028333333333333E33F0000000000000F90107901411070040501600405405064090740C02480A0340
1001
ACAD
1000
AcDbSavedByObjectVersion
1070
     0
  0
ACAD_PROXY_OBJECT
  5
40
102
{ACAD_REACTORS
330
2A
102
}
330
2A
100
AcDbProxyObject
 90
      499
 91
      501
 93
      404
310
41560B54985E51940902404000000000000E03F0000000000000F9010740501907004050150841D405064090740C02480A1B40
1001
ACAD
1000
AcDbSavedByObjectVersion
1070
     0
  0
XRECORD
  5
22F
102
{ACAD_REACTORS
330
225
102
}
330
225
100
AcDbXrecord
340
0
  0
XRECORD
  5
22E
102
{ACAD_REACTORS
330
225
102
}
330
225
100
AcDbXrecord
 90
        0
  0
XRECORD
  5
245
102
{ACAD_REACTORS
330
225
102
}
330
225
100
AcDbXrecord
1000
DSTYLE
1002
{
1070
   179
 70
     1
1070
   285
 70
     7
1070
   176
 70
     7
1070
   177
 70
     7
1070
   178
 70
     7
1070
   271
 70
     3
1070
    44
 40
0.08
1070
   371
 70
    13
1070
   372
 70
    13
1070
   272
 70
     3
1070
   340
340
73
1070
   140
 40
0.12
1070
   284
 70
     7
1070
   288
 70
     1
1070
    78
 70
     7
1070
    90
 70
     1
1002
}
  0
XRECORD
  5
230
102
{ACAD_REACTORS
330
225
102
}
330
225
100
AcDbXrecord
  1
{66e571e5-6676-3061-6265-387736757770}
  0
XRECORD
  5
228
102
{ACAD_REACTORS
330
225
102
}
330
225
100
AcDbXrecord
  1

  0
XRECORD
  5
22D
102
{ACAD_REACTORS
330
225
102
}
330
225
100
AcDbXrecord
 90
        1
  0
XRECORD
  5
22A
102
{ACAD_REACTORS
330
225
102
}
330
225
100
AcDbXrecord
340
1A
  0
XRECORD
  5
22C
102
{ACAD_REACTORS
330
225
102
}
330
225
100
AcDbXrecord
 90
    10269
  0
XRECORD
  5
22B
102
{ACAD_REACTORS
330
225
102
}
330
225
100
AcDbXrecord
340
19
  0
XRECORD
  5
232
102
{ACAD_REACTORS
330
225
102
}
330
225
100
AcDbXrecord
 40
0.0
  0
XRECORD
  5
235
102
{ACAD_REACTORS
330
225
102
}
330
225
100
AcDbXrecord
340
0
  0
XRECORD
  5
23B
102
{ACAD_REACTORS
330
225
102
}
330
225
100
AcDbXrecord
 10
0.0
 20
0.0
 30
0.0
  0
XRECORD
  5
237
102
{ACAD_REACTORS
330
225
102
}
330
225
100
AcDbXrecord
 10
0.0
 20
0.0
 30
0.0
  0
XRECORD
  5
23A
102
{ACAD_REACTORS
330
225
102
}
330
225
100
AcDbXrecord
 10
0.0
 20
0.0
 30
0.0
  0
XRECORD
  5
238
102
{ACAD_REACTORS
330
225
102
}
330
225
100
AcDbXrecord
 10
0.0
 20
0.0
 30
0.0
  0
XRECORD
  5
239
102
{ACAD_REACTORS
330
225
102
}
330
225
100
AcDbXrecord
 10
0.0
 20
0.0
 30
0.0
  0
XRECORD
  5
236
102
{ACAD_REACTORS
330
225
102
}
330
225
100
AcDbXrecord
 10
0.0
 20
0.0
 30
0.0
  0
XRECORD
  5
233
102
{ACAD_REACTORS
330
225
102
}
330
225
100
AcDbXrecord
340
0
  0
XRECORD
  5
234
102
{ACAD_REACTORS
330
225
102
}
330
225
100
AcDbXrecord
 70
     0
  0
XRECORD
  5
229
102
{ACAD_REACTORS
330
225
102
}
330
225
100
AcDbXrecord
  1

  0
XRECORD
  5
226
102
{ACAD_REACTORS
330
225
102
}
330
225
100
AcDbXrecord
 90
        1
  0
XRECORD
  5
227
102
{ACAD_REACTORS
330
225
102
}
330
225
100
AcDbXrecord
 90
       70
  0
XRECORD
  5
23E
102
{ACAD_REACTORS
330
225
102
}
330
225
100
AcDbXrecord
340
0
  0
XRECORD
  5
244
102
{ACAD_REACTORS
330
225
102
}
330
225
100
AcDbXrecord
 10
0.0
 20
0.0
 30
0.0
  0
XRECORD
  5
240
102
{ACAD_REACTORS
330
225
102
}
330
225
100
AcDbXrecord
 10
0.0
 20
0.0
 30
0.0
  0
XRECORD
  5
243
102
{ACAD_REACTORS
330
225
102
}
330
225
100
AcDbXrecord
 10
0.0
 20
0.0
 30
0.0
  0
XRECORD
  5
241
102
{ACAD_REACTORS
330
225
102
}
330
225
100
AcDbXrecord
 10
0.0
 20
0.0
 30
0.0
  0
XRECORD
  5
242
102
{ACAD_REACTORS
330
225
102
}
330
225
100
AcDbXrecord
 10
0.0
 20
0.0
 30
0.0
  0
XRECORD
  5
23F
102
{ACAD_REACTORS
330
225
102
}
330
225
100
AcDbXrecord
 10
0.0
 20
0.0
 30
0.0
  0
XRECORD
  5
23C
102
{ACAD_REACTORS
330
225
102
}
330
225
100
AcDbXrecord
340
0
  0
XRECORD
  5
23D
102
{ACAD_REACTORS
330
225
102
}
330
225
100
AcDbXrecord
 70
     0
  0
XRECORD
  5
231
102
{ACAD_REACTORS
330
225
102
}
330
225
100
AcDbXrecord
  1
{FAEB1C32-E019-11D5-929B-00C0DF256EC4}
  0
DICTIONARYVAR
  5
24E
102
{ACAD_REACTORS
330
6E
102
}
330
6E
100
DictionaryVariables
280
     0
  1
1:1
  0
DICTIONARYVAR
  5
247
102
{ACAD_REACTORS
330
6E
102
}
330
6E
100
DictionaryVariables
280
     0
  1
Standard
  0
DICTIONARYVAR
  5
246
102
{ACAD_REACTORS
330
6E
102
}
330
6E
100
DictionaryVariables
280
     0
  1
Onshape-Standard
  0
DICTIONARYVAR
  5
24A
102
{ACAD_REACTORS
330
6E
102
}
330
6E
100
DictionaryVariables
280
     0
  1
2
  0
DICTIONARYVAR
  5
24B
102
{ACAD_REACTORS
330
6E
102
}
330
6E
100
DictionaryVariables
280
     0
  1
1
  0
DICTIONARYVAR
  5
24F
102
{ACAD_REACTORS
330
6E
102
}
330
6E
100
DictionaryVariables
280
     0
  1
1
  0
DICTIONARYVAR
  5
6F
102
{ACAD_REACTORS
330
6E
102
}
330
6E
100
DictionaryVariables
280
     0
  1
0
  0
XRECORD
  5
1E5
102
{ACAD_REACTORS
330
1E4
102
}
330
1E4
100
AcDbXrecord
 70
     1
  0
XRECORD
  5
1E8
102
{ACAD_REACTORS
330
1E4
102
}
330
1E4
100
AcDbXrecord
 90
        0
  0
XRECORD
  5
1E7
102
{ACAD_REACTORS
330
1E4
102
}
330
1E4
100
AcDbXrecord
 90
        0
  0
XRECORD
  5
1E6
102
{ACAD_REACTORS
330
1E4
102
}
330
1E4
100
AcDbXrecord
 90
        0
  0
DICTIONARY
  5
252
330
45
100
AcDbDictionary
280
     1
  3
ACAD_XREC_ROUNDTRIP
360
253
  0
DICTIONARY
  5
250
330
44
100
AcDbDictionary
280
     1
  3
ACAD_XREC_ROUNDTRIP
360
251
  0
DICTIONARY
  5
254
330
46
100
AcDbDictionary
280
     1
  3
ACAD_XREC_ROUNDTRIP
360
255
  0
XRECORD
  5
253
102
{ACAD_REACTORS
330
252
102
}
330
252
100
AcDbXrecord
102
MATERIAL
148
0.0
149
0.0
149
0.0
 93
        0
 94
      127
282
     0
 72
     1
 77
     1
171
     1
175
     1
179
     1
273
     0
  0
XRECORD
  5
251
102
{ACAD_REACTORS
330
250
102
}
330
250
100
AcDbXrecord
102
MATERIAL
148
0.0
149
0.0
149
0.0
 93
        0
 94
      127
282
     0
 72
     1
 77
     1
171
     1
175
     1
179
     1
273
     0
  0
XRECORD
  5
255
102
{ACAD_REACTORS
330
254
102
}
330
254
100
AcDbXrecord
102
MATERIAL
148
0.0
149
0.0
149
0.0
 93
        0
 94
      127
282
     0
 72
     1
 77
     1
171
     1
175
     1
179
     1
273
     0
  0
ENDSEC
  0
EOF
